{"glyphs":{"0":{"ha":817,"x_min":0,"x_max":0,"o":"m 410 -14 b 54 465 213 -14 54 126 b 410 944 54 788 200 944 b 763 471 606 944 763 807 b 410 -14 763 146 618 -14 m 422 104 b 638 472 553 104 638 228 b 422 829 638 728 539 829 b 206 465 290 829 206 715 b 422 104 206 200 301 104 "},"1":{"ha":572,"x_min":0,"x_max":0,"o":"m 447 940 l 447 0 l 306 0 l 306 788 l 78 665 l 53 732 l 365 940 "},"2":{"ha":792,"x_min":0,"x_max":0,"o":"m 97 4 l 97 83 b 549 639 347 313 549 444 b 375 826 549 746 492 826 b 193 557 221 826 156 697 l 113 557 b 403 943 54 731 147 943 b 700 654 596 943 700 825 b 285 115 700 438 511 301 l 722 115 l 722 4 "},"3":{"ha":783,"x_min":0,"x_max":0,"o":"m 703 260 b 383 -14 703 89 578 -14 b 72 288 182 -14 56 79 l 153 288 b 351 103 151 174 231 103 b 551 279 474 103 551 167 b 331 433 551 396 460 433 l 244 433 l 244 529 l 322 529 b 528 672 432 529 528 558 b 354 832 528 772 465 832 b 172 651 229 832 169 758 l 94 651 b 388 944 79 840 206 944 b 675 699 557 944 675 858 b 482 482 675 571 589 508 b 703 260 604 458 703 399 "},"4":{"ha":813,"x_min":0,"x_max":0,"o":"m 615 257 l 615 0 l 475 0 l 475 257 l 49 257 l 49 353 l 481 936 l 615 936 l 615 368 l 779 368 l 779 257 m 475 368 l 475 776 l 174 368 "},"5":{"ha":785,"x_min":0,"x_max":0,"o":"m 715 321 b 400 -14 715 118 599 -14 b 90 275 221 -14 71 71 l 165 275 b 367 103 165 169 239 103 b 571 317 493 103 571 189 b 371 513 571 442 492 513 b 228 468 307 513 260 490 b 182 424 203 450 188 432 l 111 450 l 126 931 l 657 931 l 657 819 l 244 819 l 231 528 b 435 610 267 565 331 610 b 715 321 613 610 715 501 "},"6":{"ha":796,"x_min":0,"x_max":0,"o":"m 425 944 b 711 672 650 944 719 811 l 635 672 b 447 832 629 736 594 832 b 204 460 290 832 204 707 b 207 375 204 438 206 407 b 465 576 228 500 322 576 b 724 294 607 576 724 489 b 419 -14 724 92 589 -14 b 65 451 171 -14 65 163 b 425 944 65 726 176 944 m 421 481 b 236 289 299 481 236 399 b 414 101 236 183 296 101 b 593 293 524 101 593 179 b 421 481 593 419 519 481 "},"7":{"ha":725,"x_min":0,"x_max":0,"o":"m 676 853 b 319 0 422 501 335 217 l 171 0 b 539 819 185 253 290 521 l 69 819 l 69 931 l 676 931 "},"8":{"ha":804,"x_min":0,"x_max":0,"o":"m 403 -14 b 71 253 188 -14 71 82 b 272 490 71 388 156 464 b 99 707 158 518 99 594 b 401 944 99 850 197 944 b 707 707 606 944 707 850 b 533 490 707 594 646 518 b 735 253 650 464 735 388 b 403 -14 735 82 615 -14 m 403 536 b 569 686 504 536 569 585 b 403 835 569 776 510 835 b 236 686 294 835 236 776 b 403 536 236 585 301 536 m 403 96 b 590 274 507 96 590 153 b 403 440 590 390 507 440 b 215 274 301 440 215 389 b 403 96 215 151 294 96 "},"9":{"ha":796,"x_min":0,"x_max":0,"o":"m 378 -14 b 92 258 153 -14 83 119 l 168 258 b 356 99 174 194 208 99 b 599 471 513 99 599 224 b 596 556 599 493 597 524 b 338 354 575 431 481 354 b 79 636 196 354 79 442 b 383 944 79 839 214 944 b 738 479 632 944 738 768 b 378 -14 738 204 626 -14 m 382 450 b 567 642 504 450 567 532 b 389 829 567 747 507 829 b 210 638 279 829 210 751 b 382 450 210 511 283 450 "}," ":{"ha":319,"x_min":0,"x_max":0,"o":""},"A":{"ha":861,"x_min":0,"x_max":0,"o":"m 21 0 l 363 960 l 511 960 l 833 0 l 665 0 l 585 257 l 228 257 l 139 0 m 553 361 l 414 801 l 263 361 "},"B":{"ha":821,"x_min":0,"x_max":0,"o":"m 404 958 b 731 717 593 958 731 894 b 518 497 731 578 635 519 b 775 261 669 479 775 415 b 461 0 775 75 631 0 l 111 0 l 111 958 m 254 854 l 254 543 l 372 543 b 589 697 481 543 589 571 b 381 854 589 819 501 854 m 254 443 l 254 104 l 429 104 b 633 275 536 104 633 143 b 415 443 633 401 538 443 "},"C":{"ha":853,"x_min":0,"x_max":0,"o":"m 56 471 b 481 969 56 792 246 969 b 788 710 721 969 794 793 l 714 710 b 500 846 707 743 651 846 b 208 471 333 846 208 714 b 493 103 208 217 335 103 b 736 264 660 103 729 214 l 804 264 b 471 -14 804 171 728 -14 b 56 471 236 -14 56 139 "},"D":{"ha":922,"x_min":0,"x_max":0,"o":"m 374 958 b 867 485 711 958 867 754 b 374 0 867 113 625 0 l 111 0 l 111 958 m 254 854 l 254 104 l 375 104 b 715 485 586 104 715 235 b 375 854 715 701 611 854 "},"E":{"ha":736,"x_min":0,"x_max":0,"o":"m 254 451 l 254 108 l 681 108 l 681 4 l 111 4 l 111 956 l 671 956 l 671 851 l 254 851 l 254 556 l 601 556 l 601 451 "},"F":{"ha":674,"x_min":0,"x_max":0,"o":"m 254 433 l 254 0 l 111 0 l 111 956 l 667 956 l 667 851 l 254 851 l 254 538 l 576 538 l 576 433 "},"G":{"ha":896,"x_min":0,"x_max":0,"o":"m 56 475 b 494 969 56 801 263 969 b 808 710 739 969 817 797 l 735 710 b 511 846 728 743 668 846 b 208 467 346 846 208 718 b 504 97 208 228 326 97 b 704 190 640 97 688 161 l 704 372 l 543 372 l 543 476 l 833 476 l 833 171 b 493 -14 788 93 697 -14 b 56 475 229 -14 56 154 "},"H":{"ha":949,"x_min":0,"x_max":0,"o":"m 254 958 l 254 554 l 694 554 l 694 958 l 838 958 l 838 0 l 694 0 l 694 450 l 254 450 l 254 0 l 111 0 l 111 958 "},"I":{"ha":379,"x_min":0,"x_max":0,"o":"m 261 958 l 261 0 l 118 0 l 118 958 "},"J":{"ha":608,"x_min":0,"x_max":0,"o":"m 90 250 b 228 104 94 178 129 104 b 369 339 339 104 369 194 l 369 958 l 511 958 l 511 336 b 263 -14 511 136 453 -14 b 21 250 72 -14 21 113 "},"K":{"ha":842,"x_min":0,"x_max":0,"o":"m 113 958 l 256 958 l 256 510 l 647 958 l 778 958 l 435 567 l 824 0 l 646 0 l 338 456 l 256 363 l 256 0 l 113 0 "},"L":{"ha":701,"x_min":0,"x_max":0,"o":"m 254 958 l 254 111 l 688 111 l 688 4 l 111 4 l 111 958 "},"M":{"ha":1139,"x_min":0,"x_max":0,"o":"m 97 0 l 133 963 l 285 963 l 583 231 l 883 963 l 1006 963 l 1042 0 l 919 0 l 892 707 l 611 17 l 528 17 l 240 722 l 213 0 "},"N":{"ha":939,"x_min":0,"x_max":0,"o":"m 828 -7 l 713 -7 l 224 731 l 224 0 l 111 0 l 111 958 l 251 958 l 714 254 l 714 958 l 828 958 "},"O":{"ha":972,"x_min":0,"x_max":0,"o":"m 56 478 b 489 969 56 782 232 969 b 917 490 708 969 917 821 b 489 -14 917 179 753 -14 b 56 478 253 -14 56 143 m 789 485 b 504 843 789 725 650 843 b 208 478 332 843 208 707 b 504 104 208 217 354 104 b 789 485 664 104 789 236 "},"P":{"ha":782,"x_min":0,"x_max":0,"o":"m 431 958 b 757 676 619 958 757 860 b 435 382 757 467 610 382 l 254 382 l 254 0 l 111 0 l 111 958 m 254 854 l 254 486 l 404 486 b 615 671 511 486 615 529 b 394 854 615 803 519 854 "},"Q":{"ha":972,"x_min":0,"x_max":0,"o":"m 56 478 b 489 969 56 782 232 969 b 917 490 708 969 917 821 b 569 -7 917 213 786 29 b 717 -121 576 -83 625 -121 b 829 -40 782 -121 825 -93 l 883 -40 b 683 -206 883 -147 803 -206 b 429 -11 529 -206 438 -137 b 56 478 221 14 56 171 m 789 485 b 504 843 789 725 650 843 b 208 478 332 843 208 707 b 504 104 208 217 354 104 b 789 485 664 104 789 236 "},"R":{"ha":843,"x_min":0,"x_max":0,"o":"m 821 46 b 710 -10 797 13 761 -10 b 556 244 590 -10 565 53 b 388 417 549 375 500 417 l 254 417 l 254 0 l 111 0 l 111 958 l 421 958 b 749 711 610 958 749 883 b 518 469 749 561 647 490 b 710 251 632 456 706 394 b 774 65 715 101 721 65 b 808 75 788 65 800 69 l 821 46 m 254 854 l 254 517 l 385 517 b 607 685 492 517 607 558 b 396 854 607 804 517 854 "},"S":{"ha":768,"x_min":0,"x_max":0,"o":"m 129 283 b 364 92 142 144 247 92 b 561 246 474 92 561 131 b 332 432 561 356 474 390 b 85 704 183 475 85 546 b 393 969 85 871 213 969 b 686 703 581 969 699 871 l 611 703 b 411 865 604 808 518 865 b 232 715 304 865 232 817 b 453 546 232 621 319 583 b 714 261 615 500 714 422 b 386 -14 714 82 569 -14 b 53 283 182 -14 53 86 "},"T":{"ha":768,"x_min":0,"x_max":0,"o":"m 313 0 l 313 849 l 0 849 l 0 956 l 768 956 l 768 849 l 456 849 l 456 0 "},"U":{"ha":914,"x_min":0,"x_max":0,"o":"m 97 958 l 250 958 l 250 461 b 485 108 250 249 296 108 b 706 456 665 108 706 244 l 706 958 l 817 958 l 817 443 b 469 -14 817 183 733 -14 b 97 435 167 -14 97 182 "},"V":{"ha":838,"x_min":0,"x_max":0,"o":"m 172 958 l 446 158 l 729 958 l 844 958 l 501 -4 l 349 -4 l 4 958 "},"W":{"ha":1289,"x_min":0,"x_max":0,"o":"m 174 958 l 382 175 l 624 954 l 729 954 l 958 183 l 1163 958 l 1283 958 l 1022 -4 l 872 -4 l 656 688 l 435 -4 l 285 -4 l 18 958 "},"X":{"ha":826,"x_min":0,"x_max":0,"o":"m 206 958 l 426 600 l 656 958 l 782 958 l 488 513 l 813 0 l 629 0 l 390 400 l 142 0 l 14 0 l 322 485 l 24 958 "},"Y":{"ha":765,"x_min":0,"x_max":0,"o":"m 463 0 l 319 0 l 319 400 l -4 958 l 172 958 l 417 528 l 658 958 l 778 958 l 463 396 "},"Z":{"ha":768,"x_min":0,"x_max":0,"o":"m 526 851 l 78 851 l 78 956 l 701 956 l 701 860 l 228 108 l 713 108 l 713 4 l 56 4 l 56 100 "},"À":{"ha":861,"x_min":0,"x_max":0,"o":"m 339 1215 l 568 1051 l 532 1014 l 264 1122 m 21 0 l 363 960 l 511 960 l 833 0 l 665 0 l 585 257 l 228 257 l 139 0 m 553 361 l 414 801 l 263 361 "},"Á":{"ha":861,"x_min":0,"x_max":0,"o":"m 540 1215 l 615 1122 l 347 1014 l 311 1051 m 21 0 l 363 960 l 511 960 l 833 0 l 665 0 l 585 257 l 228 257 l 139 0 m 553 361 l 414 801 l 263 361 "},"Â":{"ha":861,"x_min":0,"x_max":0,"o":"m 400 1213 l 464 1213 l 658 1060 l 625 1013 l 432 1113 l 239 1013 l 207 1060 m 21 0 l 363 960 l 511 960 l 833 0 l 665 0 l 585 257 l 228 257 l 139 0 m 553 361 l 414 801 l 263 361 "},"Ã":{"ha":861,"x_min":0,"x_max":0,"o":"m 531 1117 b 583 1211 585 1117 594 1164 l 619 1211 b 518 1026 656 1108 618 1026 b 325 1119 414 1026 407 1119 b 272 1026 272 1119 261 1075 l 236 1026 b 339 1210 200 1132 239 1210 b 531 1117 449 1210 457 1117 m 21 0 l 363 960 l 511 960 l 833 0 l 665 0 l 585 257 l 228 257 l 139 0 m 553 361 l 414 801 l 263 361 "},"Ä":{"ha":861,"x_min":0,"x_max":0,"o":"m 256 1172 l 385 1172 l 385 1042 l 256 1042 m 497 1172 l 626 1172 l 626 1042 l 497 1042 m 21 0 l 363 960 l 511 960 l 833 0 l 665 0 l 585 257 l 228 257 l 139 0 m 553 361 l 414 801 l 263 361 "},"Ā":{"ha":861,"x_min":0,"x_max":0,"o":"m 625 1164 l 625 1078 l 242 1078 l 242 1164 m 21 0 l 363 960 l 511 960 l 833 0 l 665 0 l 585 257 l 228 257 l 139 0 m 553 361 l 414 801 l 263 361 "},"Ă":{"ha":861,"x_min":0,"x_max":0,"o":"m 288 1217 b 442 1115 294 1174 325 1115 b 594 1217 554 1115 588 1174 l 644 1217 b 442 1021 651 1124 597 1021 b 238 1217 285 1021 231 1124 m 21 0 l 363 960 l 511 960 l 833 0 l 665 0 l 585 257 l 228 257 l 139 0 m 553 361 l 414 801 l 263 361 "},"Å":{"ha":861,"x_min":0,"x_max":0,"o":"m 286 1132 b 432 1272 286 1211 347 1272 b 579 1132 521 1272 579 1211 b 432 993 579 1054 521 993 b 286 1132 346 993 286 1054 m 504 1122 b 433 1196 504 1164 474 1196 b 361 1122 390 1196 361 1164 b 433 1050 361 1082 390 1050 b 504 1122 474 1050 504 1082 m 21 0 l 363 960 l 511 960 l 833 0 l 665 0 l 585 257 l 228 257 l 139 0 m 553 361 l 414 801 l 263 361 "},"Ǻ":{"ha":861,"x_min":0,"x_max":0,"o":"m 519 1385 l 594 1292 l 326 1183 l 290 1221 m 21 0 l 350 925 b 288 1042 311 950 288 993 b 433 1182 288 1121 349 1182 b 581 1042 522 1182 581 1121 b 522 928 581 994 558 953 l 833 0 l 665 0 l 585 257 l 228 257 l 139 0 m 506 1032 b 435 1106 506 1074 475 1106 b 363 1032 392 1106 363 1074 b 435 960 363 992 392 960 b 506 1032 475 960 506 992 m 553 361 l 414 801 l 263 361 "},"Ą":{"ha":861,"x_min":0,"x_max":0,"o":"m 21 0 l 363 960 l 511 960 l 833 0 l 763 0 b 625 -172 693 -19 625 -90 b 672 -225 625 -199 633 -225 b 721 -160 706 -225 721 -194 l 753 -160 b 646 -287 757 -231 728 -287 b 539 -185 571 -287 539 -242 b 667 0 539 -106 597 -46 l 665 0 l 585 257 l 228 257 l 139 0 m 553 361 l 414 801 l 263 361 "},"Æ":{"ha":1160,"x_min":0,"x_max":0,"o":"m 718 421 l 718 108 l 1104 108 l 1104 4 l 576 4 l 576 326 l 317 326 l 125 0 l 0 0 l 574 956 l 1093 956 l 1093 851 l 718 851 l 718 525 l 1024 525 l 1024 421 m 576 431 l 576 767 l 378 431 "},"Ǽ":{"ha":1160,"x_min":0,"x_max":0,"o":"m 917 1215 l 992 1122 l 724 1014 l 688 1051 m 718 421 l 718 108 l 1104 108 l 1104 4 l 576 4 l 576 326 l 317 326 l 125 0 l 0 0 l 574 956 l 1093 956 l 1093 851 l 718 851 l 718 525 l 1024 525 l 1024 421 m 576 431 l 576 767 l 378 431 "},"Ć":{"ha":853,"x_min":0,"x_max":0,"o":"m 608 1215 l 683 1122 l 415 1014 l 379 1051 m 56 471 b 481 969 56 792 246 969 b 788 710 721 969 794 793 l 714 710 b 500 846 707 743 651 846 b 208 471 333 846 208 714 b 493 103 208 217 335 103 b 736 264 660 103 729 214 l 804 264 b 471 -14 804 171 728 -14 b 56 471 236 -14 56 139 "},"Ĉ":{"ha":853,"x_min":0,"x_max":0,"o":"m 439 1213 l 503 1213 l 697 1060 l 664 1013 l 471 1113 l 278 1013 l 246 1060 m 56 471 b 481 969 56 792 246 969 b 788 710 721 969 794 793 l 714 710 b 500 846 707 743 651 846 b 208 471 333 846 208 714 b 493 103 208 217 335 103 b 736 264 660 103 729 214 l 804 264 b 471 -14 804 171 728 -14 b 56 471 236 -14 56 139 "},"Č":{"ha":853,"x_min":0,"x_max":0,"o":"m 290 1213 l 483 1113 l 676 1213 l 708 1165 l 515 1013 l 451 1013 l 257 1165 m 56 471 b 481 969 56 792 246 969 b 788 710 721 969 794 793 l 714 710 b 500 846 707 743 651 846 b 208 471 333 846 208 714 b 493 103 208 217 335 103 b 736 264 660 103 729 214 l 804 264 b 471 -14 804 171 728 -14 b 56 471 236 -14 56 139 "},"Ċ":{"ha":853,"x_min":0,"x_max":0,"o":"m 406 1176 l 554 1176 l 554 1040 l 406 1040 m 56 471 b 481 969 56 792 246 969 b 788 710 721 969 794 793 l 714 710 b 500 846 707 743 651 846 b 208 471 333 846 208 714 b 493 103 208 217 335 103 b 736 264 660 103 729 214 l 804 264 b 471 -14 804 171 728 -14 b 56 471 236 -14 56 139 "},"Ç":{"ha":853,"x_min":0,"x_max":0,"o":"m 415 -160 b 465 -219 414 -200 428 -219 b 513 -165 493 -219 513 -200 b 432 -110 513 -115 481 -100 l 406 -96 l 429 -12 b 56 471 215 6 56 160 b 481 969 56 792 246 969 b 788 710 721 969 794 793 l 714 710 b 500 846 707 743 651 846 b 208 471 333 846 208 714 b 493 103 208 217 335 103 b 736 264 660 103 729 214 l 804 264 b 475 -14 804 171 728 -14 l 467 -64 b 600 -165 543 -53 600 -86 b 485 -276 600 -239 551 -276 b 382 -160 401 -276 375 -224 "},"Ď":{"ha":922,"x_min":0,"x_max":0,"o":"m 218 1213 l 411 1113 l 604 1213 l 636 1165 l 443 1013 l 379 1013 l 185 1165 m 374 958 b 867 485 711 958 867 754 b 374 0 867 113 625 0 l 111 0 l 111 958 m 254 854 l 254 104 l 375 104 b 715 485 586 104 715 235 b 375 854 715 701 611 854 "},"Đ":{"ha":922,"x_min":0,"x_max":0,"o":"m 111 532 l 111 958 l 374 958 b 867 485 711 958 867 754 b 374 0 867 113 625 0 l 111 0 l 111 463 l 14 463 l 14 532 m 254 463 l 254 104 l 375 104 b 715 485 586 104 715 235 b 375 854 715 701 611 854 l 254 854 l 254 532 l 478 532 l 478 463 "},"È":{"ha":736,"x_min":0,"x_max":0,"o":"m 299 1215 l 528 1051 l 492 1014 l 224 1122 m 254 451 l 254 108 l 681 108 l 681 4 l 111 4 l 111 956 l 671 956 l 671 851 l 254 851 l 254 556 l 601 556 l 601 451 "},"É":{"ha":736,"x_min":0,"x_max":0,"o":"m 490 1215 l 565 1122 l 297 1014 l 261 1051 m 254 451 l 254 108 l 681 108 l 681 4 l 111 4 l 111 956 l 671 956 l 671 851 l 254 851 l 254 556 l 601 556 l 601 451 "},"Ê":{"ha":736,"x_min":0,"x_max":0,"o":"m 367 1213 l 431 1213 l 625 1060 l 592 1013 l 399 1113 l 206 1013 l 174 1060 m 254 451 l 254 108 l 681 108 l 681 4 l 111 4 l 111 956 l 671 956 l 671 851 l 254 851 l 254 556 l 601 556 l 601 451 "},"Ě":{"ha":736,"x_min":0,"x_max":0,"o":"m 211 1213 l 404 1113 l 597 1213 l 629 1165 l 436 1013 l 372 1013 l 178 1165 m 254 451 l 254 108 l 681 108 l 681 4 l 111 4 l 111 956 l 671 956 l 671 851 l 254 851 l 254 556 l 601 556 l 601 451 "},"Ë":{"ha":736,"x_min":0,"x_max":0,"o":"m 214 1172 l 343 1172 l 343 1042 l 214 1042 m 456 1172 l 585 1172 l 585 1042 l 456 1042 m 254 451 l 254 108 l 681 108 l 681 4 l 111 4 l 111 956 l 671 956 l 671 851 l 254 851 l 254 556 l 601 556 l 601 451 "},"Ē":{"ha":736,"x_min":0,"x_max":0,"o":"m 588 1164 l 588 1078 l 204 1078 l 204 1164 m 254 451 l 254 108 l 681 108 l 681 4 l 111 4 l 111 956 l 671 956 l 671 851 l 254 851 l 254 556 l 601 556 l 601 451 "},"Ĕ":{"ha":736,"x_min":0,"x_max":0,"o":"m 243 1217 b 397 1115 250 1174 281 1115 b 550 1217 510 1115 543 1174 l 600 1217 b 397 1021 607 1124 553 1021 b 193 1217 240 1021 186 1124 m 254 451 l 254 108 l 681 108 l 681 4 l 111 4 l 111 956 l 671 956 l 671 851 l 254 851 l 254 556 l 601 556 l 601 451 "},"Ė":{"ha":736,"x_min":0,"x_max":0,"o":"m 324 1176 l 472 1176 l 472 1040 l 324 1040 m 254 451 l 254 108 l 681 108 l 681 4 l 111 4 l 111 956 l 671 956 l 671 851 l 254 851 l 254 556 l 601 556 l 601 451 "},"Ę":{"ha":736,"x_min":0,"x_max":0,"o":"m 444 -174 b 557 4 444 -101 485 -40 l 111 4 l 111 956 l 671 956 l 671 851 l 254 851 l 254 556 l 601 556 l 601 451 l 254 451 l 254 108 l 681 108 l 681 4 l 676 4 b 531 -161 579 4 531 -92 b 582 -225 531 -201 544 -225 b 632 -160 617 -225 632 -194 l 665 -160 b 556 -287 668 -231 639 -287 b 444 -174 481 -287 444 -246 "},"Ĝ":{"ha":896,"x_min":0,"x_max":0,"o":"m 454 1213 l 518 1213 l 713 1060 l 679 1013 l 486 1113 l 293 1013 l 261 1060 m 56 475 b 494 969 56 801 263 969 b 808 710 739 969 817 797 l 735 710 b 511 846 728 743 668 846 b 208 467 346 846 208 718 b 504 97 208 228 326 97 b 704 190 640 97 688 161 l 704 372 l 543 372 l 543 476 l 833 476 l 833 171 b 493 -14 788 93 697 -14 b 56 475 229 -14 56 154 "},"Ğ":{"ha":896,"x_min":0,"x_max":0,"o":"m 331 1217 b 485 1115 338 1174 368 1115 b 638 1217 597 1115 631 1174 l 688 1217 b 485 1021 694 1124 640 1021 b 281 1217 328 1021 274 1124 m 56 475 b 494 969 56 801 263 969 b 808 710 739 969 817 797 l 735 710 b 511 846 728 743 668 846 b 208 467 346 846 208 718 b 504 97 208 228 326 97 b 704 190 640 97 688 161 l 704 372 l 543 372 l 543 476 l 833 476 l 833 171 b 493 -14 788 93 697 -14 b 56 475 229 -14 56 154 "},"Ġ":{"ha":896,"x_min":0,"x_max":0,"o":"m 413 1176 l 561 1176 l 561 1040 l 413 1040 m 56 475 b 494 969 56 801 263 969 b 808 710 739 969 817 797 l 735 710 b 511 846 728 743 668 846 b 208 467 346 846 208 718 b 504 97 208 228 326 97 b 704 190 640 97 688 161 l 704 372 l 543 372 l 543 476 l 833 476 l 833 171 b 493 -14 788 93 697 -14 b 56 475 229 -14 56 154 "},"Ģ":{"ha":896,"x_min":0,"x_max":0,"o":"m 56 475 b 494 969 56 801 263 969 b 808 710 739 969 817 797 l 735 710 b 511 846 728 743 668 846 b 208 467 346 846 208 718 b 504 97 208 228 326 97 b 704 190 640 97 688 161 l 704 372 l 543 372 l 543 476 l 833 476 l 833 171 b 493 -14 788 93 697 -14 b 56 475 229 -14 56 154 m 456 -76 l 564 -76 l 460 -318 l 392 -303 "},"Ĥ":{"ha":949,"x_min":0,"x_max":0,"o":"m 442 1213 l 506 1213 l 700 1060 l 667 1013 l 474 1113 l 281 1013 l 249 1060 m 254 958 l 254 554 l 694 554 l 694 958 l 838 958 l 838 0 l 694 0 l 694 450 l 254 450 l 254 0 l 111 0 l 111 958 "},"Ħ":{"ha":949,"x_min":0,"x_max":0,"o":"m 254 958 l 254 821 l 694 821 l 694 958 l 838 958 l 838 821 l 935 821 l 935 751 l 838 751 l 838 0 l 694 0 l 694 450 l 254 450 l 254 0 l 111 0 l 111 751 l 14 751 l 14 821 l 111 821 l 111 958 m 694 554 l 694 751 l 254 751 l 254 554 "},"Ì":{"ha":379,"x_min":0,"x_max":0,"o":"m 79 1215 l 308 1051 l 272 1014 l 4 1122 m 261 958 l 261 0 l 118 0 l 118 958 "},"Í":{"ha":379,"x_min":0,"x_max":0,"o":"m 300 1215 l 375 1122 l 107 1014 l 71 1051 m 261 958 l 261 0 l 118 0 l 118 958 "},"Î":{"ha":379,"x_min":0,"x_max":0,"o":"m 40 1014 l 6 1054 l 158 1213 l 221 1213 l 374 1054 l 339 1014 l 190 1119 m 261 958 l 261 0 l 118 0 l 118 958 "},"Ĩ":{"ha":379,"x_min":0,"x_max":0,"o":"m 297 1117 b 350 1211 351 1117 361 1164 l 386 1211 b 285 1026 422 1108 385 1026 b 92 1119 181 1026 174 1119 b 39 1026 39 1119 28 1075 l 3 1026 b 106 1210 -33 1132 6 1210 b 297 1117 215 1210 224 1117 m 261 958 l 261 0 l 118 0 l 118 958 "},"Ï":{"ha":379,"x_min":0,"x_max":0,"o":"m 4 1172 l 133 1172 l 133 1042 l 4 1042 m 246 1172 l 375 1172 l 375 1042 l 246 1042 m 261 958 l 261 0 l 118 0 l 118 958 "},"Ī":{"ha":379,"x_min":0,"x_max":0,"o":"m 346 1164 l 346 1078 l 33 1078 l 33 1164 m 261 958 l 261 0 l 118 0 l 118 958 "},"Ĭ":{"ha":379,"x_min":0,"x_max":0,"o":"m 36 1217 b 190 1115 43 1174 74 1115 b 343 1217 303 1115 336 1174 l 393 1217 b 190 1021 400 1124 346 1021 b -14 1217 33 1021 -21 1124 m 261 958 l 261 0 l 118 0 l 118 958 "},"İ":{"ha":379,"x_min":0,"x_max":0,"o":"m 115 1176 l 264 1176 l 264 1040 l 115 1040 m 261 958 l 261 0 l 118 0 l 118 958 "},"Į":{"ha":379,"x_min":0,"x_max":0,"o":"m 78 -172 b 175 0 78 -103 126 -43 l 118 0 l 118 958 l 261 958 l 261 0 l 260 0 b 164 -160 200 -25 164 -94 b 218 -225 164 -203 179 -225 b 267 -160 251 -225 267 -194 l 300 -160 b 192 -287 303 -231 274 -287 b 78 -172 117 -287 78 -246 "},"Ĳ":{"ha":989,"x_min":0,"x_max":0,"o":"m 261 958 l 261 0 l 118 0 l 118 958 m 471 250 b 608 104 475 178 510 104 b 750 339 719 104 750 194 l 750 958 l 892 958 l 892 336 b 643 -14 892 136 833 -14 b 401 250 453 -14 401 113 "},"Ĵ":{"ha":608,"x_min":0,"x_max":0,"o":"m 285 1014 l 250 1054 l 403 1213 l 465 1213 l 618 1054 l 583 1014 l 435 1119 m 90 250 b 228 104 94 178 129 104 b 369 339 339 104 369 194 l 369 958 l 511 958 l 511 336 b 263 -14 511 136 453 -14 b 21 250 72 -14 21 113 "},"Ķ":{"ha":842,"x_min":0,"x_max":0,"o":"m 113 958 l 256 958 l 256 510 l 647 958 l 778 958 l 435 567 l 824 0 l 646 0 l 338 456 l 256 363 l 256 0 l 113 0 m 388 -76 l 496 -76 l 392 -318 l 324 -303 "},"Ĺ":{"ha":701,"x_min":0,"x_max":0,"o":"m 369 1215 l 444 1122 l 176 1014 l 140 1051 m 254 958 l 254 111 l 688 111 l 688 4 l 111 4 l 111 958 "},"Ľ":{"ha":701,"x_min":0,"x_max":0,"o":"m 481 972 l 592 972 l 506 696 l 428 696 m 254 958 l 254 111 l 688 111 l 688 4 l 111 4 l 111 958 "},"Ļ":{"ha":701,"x_min":0,"x_max":0,"o":"m 254 958 l 254 111 l 688 111 l 688 4 l 111 4 l 111 958 m 374 -76 l 482 -76 l 378 -318 l 310 -303 "},"Ł":{"ha":701,"x_min":0,"x_max":0,"o":"m 21 353 l 111 414 l 111 958 l 254 958 l 254 511 l 451 646 l 451 538 l 254 403 l 254 111 l 688 111 l 688 4 l 111 4 l 111 306 l 21 244 "},"Ŀ":{"ha":701,"x_min":0,"x_max":0,"o":"m 254 958 l 254 111 l 688 111 l 688 4 l 111 4 l 111 958 m 453 579 l 601 579 l 601 443 l 453 443 "},"Ń":{"ha":939,"x_min":0,"x_max":0,"o":"m 575 1215 l 650 1122 l 382 1014 l 346 1051 m 828 -7 l 713 -7 l 224 731 l 224 0 l 111 0 l 111 958 l 251 958 l 714 254 l 714 958 l 828 958 "},"Ň":{"ha":939,"x_min":0,"x_max":0,"o":"m 299 1213 l 492 1113 l 685 1213 l 717 1165 l 524 1013 l 460 1013 l 265 1165 m 828 -7 l 713 -7 l 224 731 l 224 0 l 111 0 l 111 958 l 251 958 l 714 254 l 714 958 l 828 958 "},"Ñ":{"ha":939,"x_min":0,"x_max":0,"o":"m 604 1117 b 657 1211 658 1117 668 1164 l 693 1211 b 592 1026 729 1108 692 1026 b 399 1119 488 1026 481 1119 b 346 1026 346 1119 335 1075 l 310 1026 b 413 1210 274 1132 313 1210 b 604 1117 522 1210 531 1117 m 828 -7 l 713 -7 l 224 731 l 224 0 l 111 0 l 111 958 l 251 958 l 714 254 l 714 958 l 828 958 "},"Ņ":{"ha":939,"x_min":0,"x_max":0,"o":"m 828 -7 l 713 -7 l 224 731 l 224 0 l 111 0 l 111 958 l 251 958 l 714 254 l 714 958 l 828 958 m 421 -76 l 529 -76 l 425 -318 l 357 -303 "},"Ò":{"ha":972,"x_min":0,"x_max":0,"o":"m 399 1215 l 628 1051 l 592 1014 l 324 1122 m 56 478 b 489 969 56 782 232 969 b 917 490 708 969 917 821 b 489 -14 917 179 753 -14 b 56 478 253 -14 56 143 m 789 485 b 504 843 789 725 650 843 b 208 478 332 843 208 707 b 504 104 208 217 354 104 b 789 485 664 104 789 236 "},"Ó":{"ha":972,"x_min":0,"x_max":0,"o":"m 594 1215 l 669 1122 l 401 1014 l 365 1051 m 56 478 b 489 969 56 782 232 969 b 917 490 708 969 917 821 b 489 -14 917 179 753 -14 b 56 478 253 -14 56 143 m 789 485 b 504 843 789 725 650 843 b 208 478 332 843 208 707 b 504 104 208 217 354 104 b 789 485 664 104 789 236 "},"Ô":{"ha":972,"x_min":0,"x_max":0,"o":"m 457 1213 l 521 1213 l 715 1060 l 682 1013 l 489 1113 l 296 1013 l 264 1060 m 56 478 b 489 969 56 782 232 969 b 917 490 708 969 917 821 b 489 -14 917 179 753 -14 b 56 478 253 -14 56 143 m 789 485 b 504 843 789 725 650 843 b 208 478 332 843 208 707 b 504 104 208 217 354 104 b 789 485 664 104 789 236 "},"Õ":{"ha":972,"x_min":0,"x_max":0,"o":"m 596 1117 b 649 1211 650 1117 660 1164 l 685 1211 b 583 1026 721 1108 683 1026 b 390 1119 479 1026 472 1119 b 338 1026 338 1119 326 1075 l 301 1026 b 404 1210 265 1132 304 1210 b 596 1117 514 1210 522 1117 m 56 478 b 489 969 56 782 232 969 b 917 490 708 969 917 821 b 489 -14 917 179 753 -14 b 56 478 253 -14 56 143 m 789 485 b 504 843 789 725 650 843 b 208 478 332 843 208 707 b 504 104 208 217 354 104 b 789 485 664 104 789 236 "},"Ö":{"ha":972,"x_min":0,"x_max":0,"o":"m 300 1172 l 429 1172 l 429 1042 l 300 1042 m 542 1172 l 671 1172 l 671 1042 l 542 1042 m 56 478 b 489 969 56 782 232 969 b 917 490 708 969 917 821 b 489 -14 917 179 753 -14 b 56 478 253 -14 56 143 m 789 485 b 504 843 789 725 650 843 b 208 478 332 843 208 707 b 504 104 208 217 354 104 b 789 485 664 104 789 236 "},"Ō":{"ha":972,"x_min":0,"x_max":0,"o":"m 685 1164 l 685 1078 l 301 1078 l 301 1164 m 56 478 b 489 969 56 782 232 969 b 917 490 708 969 917 821 b 489 -14 917 179 753 -14 b 56 478 253 -14 56 143 m 789 485 b 504 843 789 725 650 843 b 208 478 332 843 208 707 b 504 104 208 217 354 104 b 789 485 664 104 789 236 "},"Ŏ":{"ha":972,"x_min":0,"x_max":0,"o":"m 333 1217 b 488 1115 340 1174 371 1115 b 640 1217 600 1115 633 1174 l 690 1217 b 488 1021 697 1124 643 1021 b 283 1217 331 1021 276 1124 m 56 478 b 489 969 56 782 232 969 b 917 490 708 969 917 821 b 489 -14 917 179 753 -14 b 56 478 253 -14 56 143 m 789 485 b 504 843 789 725 650 843 b 208 478 332 843 208 707 b 504 104 208 217 354 104 b 789 485 664 104 789 236 "},"Ő":{"ha":972,"x_min":0,"x_max":0,"o":"m 507 1211 l 567 1147 l 378 996 l 329 1044 m 729 1211 l 789 1147 l 600 996 l 551 1044 m 56 478 b 489 969 56 782 232 969 b 917 490 708 969 917 821 b 489 -14 917 179 753 -14 b 56 478 253 -14 56 143 m 789 485 b 504 843 789 725 650 843 b 208 478 332 843 208 707 b 504 104 208 217 354 104 b 789 485 664 104 789 236 "},"Ø":{"ha":972,"x_min":0,"x_max":0,"o":"m 56 478 b 489 969 56 782 232 969 b 747 888 582 969 672 943 l 807 965 l 918 965 l 811 825 b 917 490 876 747 917 638 b 489 -14 917 179 753 -14 b 229 67 392 -14 301 13 l 169 -11 l 56 -11 l 164 129 b 56 478 96 210 56 325 m 208 478 b 258 253 208 383 228 310 l 668 785 b 504 843 621 824 563 843 b 208 478 332 843 208 707 m 789 485 b 729 718 789 583 765 661 l 314 178 b 504 104 368 128 436 104 b 789 485 664 104 789 236 "},"Ǿ":{"ha":972,"x_min":0,"x_max":0,"o":"m 593 1215 l 668 1122 l 400 1014 l 364 1051 m 56 478 b 489 969 56 782 232 969 b 747 888 582 969 672 943 l 807 965 l 918 965 l 811 825 b 917 490 876 747 917 638 b 489 -14 917 179 753 -14 b 229 67 392 -14 301 13 l 169 -11 l 56 -11 l 164 129 b 56 478 96 210 56 325 m 208 478 b 258 253 208 383 228 310 l 668 785 b 504 843 621 824 563 843 b 208 478 332 843 208 707 m 789 485 b 729 718 789 583 765 661 l 314 178 b 504 104 368 128 436 104 b 789 485 664 104 789 236 "},"Œ":{"ha":1338,"x_min":0,"x_max":0,"o":"m 56 478 b 467 969 56 782 224 969 b 754 825 581 969 683 922 l 754 956 l 1271 956 l 1271 851 l 882 851 l 882 556 l 1201 556 l 1201 451 l 882 451 l 882 108 l 1282 108 l 1282 4 l 754 4 l 754 139 b 467 -14 689 43 592 -14 b 56 478 242 -14 56 143 m 751 485 b 478 842 751 724 625 842 b 207 478 318 842 207 706 b 478 104 207 217 340 104 b 751 485 636 104 751 228 "},"Ŕ":{"ha":843,"x_min":0,"x_max":0,"o":"m 497 1215 l 572 1122 l 304 1014 l 268 1051 m 821 46 b 710 -10 797 13 761 -10 b 556 244 590 -10 565 53 b 388 417 549 375 500 417 l 254 417 l 254 0 l 111 0 l 111 958 l 421 958 b 749 711 610 958 749 883 b 518 469 749 561 647 490 b 710 251 632 456 706 394 b 774 65 715 101 721 65 b 808 75 788 65 800 69 l 821 46 m 254 854 l 254 517 l 385 517 b 607 685 492 517 607 558 b 396 854 607 804 517 854 "},"Ř":{"ha":843,"x_min":0,"x_max":0,"o":"m 224 1213 l 417 1113 l 610 1213 l 642 1165 l 449 1013 l 385 1013 l 190 1165 m 821 46 b 710 -10 797 13 761 -10 b 556 244 590 -10 565 53 b 388 417 549 375 500 417 l 254 417 l 254 0 l 111 0 l 111 958 l 421 958 b 749 711 610 958 749 883 b 518 469 749 561 647 490 b 710 251 632 456 706 394 b 774 65 715 101 721 65 b 808 75 788 65 800 69 l 821 46 m 254 854 l 254 517 l 385 517 b 607 685 492 517 607 558 b 396 854 607 804 517 854 "},"Ŗ":{"ha":843,"x_min":0,"x_max":0,"o":"m 821 46 b 710 -10 797 13 761 -10 b 556 244 590 -10 565 53 b 388 417 549 375 500 417 l 254 417 l 254 0 l 111 0 l 111 958 l 421 958 b 749 711 610 958 749 883 b 518 469 749 561 647 490 b 710 251 632 456 706 394 b 774 65 715 101 721 65 b 808 75 788 65 800 69 l 821 46 m 254 854 l 254 517 l 385 517 b 607 685 492 517 607 558 b 396 854 607 804 517 854 m 385 -76 l 493 -76 l 389 -318 l 321 -303 "},"Ś":{"ha":768,"x_min":0,"x_max":0,"o":"m 501 1215 l 576 1122 l 308 1014 l 272 1051 m 129 283 b 364 92 142 144 247 92 b 561 246 474 92 561 131 b 332 432 561 356 474 390 b 85 704 183 475 85 546 b 393 969 85 871 213 969 b 686 703 581 969 699 871 l 611 703 b 411 865 604 808 518 865 b 232 715 304 865 232 817 b 453 546 232 621 319 583 b 714 261 615 500 714 422 b 386 -14 714 82 569 -14 b 53 283 182 -14 53 86 "},"Ŝ":{"ha":768,"x_min":0,"x_max":0,"o":"m 357 1213 l 421 1213 l 615 1060 l 582 1013 l 389 1113 l 196 1013 l 164 1060 m 129 283 b 364 92 142 144 247 92 b 561 246 474 92 561 131 b 332 432 561 356 474 390 b 85 704 183 475 85 546 b 393 969 85 871 213 969 b 686 703 581 969 699 871 l 611 703 b 411 865 604 808 518 865 b 232 715 304 865 232 817 b 453 546 232 621 319 583 b 714 261 615 500 714 422 b 386 -14 714 82 569 -14 b 53 283 182 -14 53 86 "},"Š":{"ha":768,"x_min":0,"x_max":0,"o":"m 190 1213 l 383 1113 l 576 1213 l 608 1165 l 415 1013 l 351 1013 l 157 1165 m 129 283 b 364 92 142 144 247 92 b 561 246 474 92 561 131 b 332 432 561 356 474 390 b 85 704 183 475 85 546 b 393 969 85 871 213 969 b 686 703 581 969 699 871 l 611 703 b 411 865 604 808 518 865 b 232 715 304 865 232 817 b 453 546 232 621 319 583 b 714 261 615 500 714 422 b 386 -14 714 82 569 -14 b 53 283 182 -14 53 86 "},"Ş":{"ha":768,"x_min":0,"x_max":0,"o":"m 129 283 b 364 92 142 144 247 92 b 561 246 474 92 561 131 b 332 432 561 356 474 390 b 85 704 183 475 85 546 b 393 969 85 871 213 969 b 686 703 581 969 699 871 l 611 703 b 411 865 604 808 518 865 b 232 715 304 865 232 817 b 453 546 232 621 319 583 b 714 261 615 500 714 422 b 406 -14 714 88 579 -7 l 397 -64 b 531 -165 474 -53 531 -86 b 415 -276 531 -239 482 -276 b 313 -160 332 -276 306 -224 l 346 -160 b 396 -219 344 -200 358 -219 b 443 -165 424 -219 443 -200 b 363 -110 443 -115 411 -100 l 336 -96 l 358 -14 b 53 283 171 -4 53 94 "},"Ș":{"ha":768,"x_min":0,"x_max":0,"o":"m 129 283 b 364 92 142 144 247 92 b 561 246 474 92 561 131 b 332 432 561 356 474 390 b 85 704 183 475 85 546 b 393 969 85 871 213 969 b 686 703 581 969 699 871 l 611 703 b 411 865 604 808 518 865 b 232 715 304 865 232 817 b 453 546 232 621 319 583 b 714 261 615 500 714 422 b 386 -14 714 82 569 -14 b 53 283 182 -14 53 86 m 349 -76 l 457 -76 l 353 -318 l 285 -303 "},"Ť":{"ha":768,"x_min":0,"x_max":0,"o":"m 192 1213 l 385 1113 l 578 1213 l 610 1165 l 417 1013 l 353 1013 l 158 1165 m 313 0 l 313 849 l 0 849 l 0 956 l 768 956 l 768 849 l 456 849 l 456 0 "},"Ț":{"ha":768,"x_min":0,"x_max":0,"o":"m 313 0 l 313 849 l 0 849 l 0 956 l 768 956 l 768 849 l 456 849 l 456 0 m 329 -76 l 438 -76 l 333 -318 l 265 -303 "},"Ţ":{"ha":768,"x_min":0,"x_max":0,"o":"m 329 -160 b 379 -219 328 -200 342 -219 b 426 -165 407 -219 426 -200 b 346 -110 426 -115 394 -100 l 319 -96 l 346 0 l 313 0 l 313 849 l 0 849 l 0 956 l 768 956 l 768 849 l 456 849 l 456 0 l 390 0 l 381 -64 b 514 -165 457 -53 514 -86 b 399 -276 514 -239 465 -276 b 296 -160 315 -276 289 -224 "},"Ŧ":{"ha":768,"x_min":0,"x_max":0,"o":"m 313 0 l 313 433 l 135 433 l 135 503 l 313 503 l 313 849 l 0 849 l 0 956 l 768 956 l 768 849 l 456 849 l 456 503 l 633 503 l 633 433 l 456 433 l 456 0 "},"Ù":{"ha":914,"x_min":0,"x_max":0,"o":"m 390 1215 l 619 1051 l 583 1014 l 315 1122 m 97 958 l 250 958 l 250 461 b 485 108 250 249 296 108 b 706 456 665 108 706 244 l 706 958 l 817 958 l 817 443 b 469 -14 817 183 733 -14 b 97 435 167 -14 97 182 "},"Ú":{"ha":914,"x_min":0,"x_max":0,"o":"m 596 1215 l 671 1122 l 403 1014 l 367 1051 m 97 958 l 250 958 l 250 461 b 485 108 250 249 296 108 b 706 456 665 108 706 244 l 706 958 l 817 958 l 817 443 b 469 -14 817 183 733 -14 b 97 435 167 -14 97 182 "},"Û":{"ha":914,"x_min":0,"x_max":0,"o":"m 446 1213 l 510 1213 l 704 1060 l 671 1013 l 478 1113 l 285 1013 l 253 1060 m 97 958 l 250 958 l 250 461 b 485 108 250 249 296 108 b 706 456 665 108 706 244 l 706 958 l 817 958 l 817 443 b 469 -14 817 183 733 -14 b 97 435 167 -14 97 182 "},"Ũ":{"ha":914,"x_min":0,"x_max":0,"o":"m 586 1117 b 639 1211 640 1117 650 1164 l 675 1211 b 574 1026 711 1108 674 1026 b 381 1119 469 1026 463 1119 b 328 1026 328 1119 317 1075 l 292 1026 b 394 1210 256 1132 294 1210 b 586 1117 504 1210 513 1117 m 97 958 l 250 958 l 250 461 b 485 108 250 249 296 108 b 706 456 665 108 706 244 l 706 958 l 817 958 l 817 443 b 469 -14 817 183 733 -14 b 97 435 167 -14 97 182 "},"Ü":{"ha":914,"x_min":0,"x_max":0,"o":"m 296 1172 l 425 1172 l 425 1042 l 296 1042 m 538 1172 l 667 1172 l 667 1042 l 538 1042 m 97 958 l 250 958 l 250 461 b 485 108 250 249 296 108 b 706 456 665 108 706 244 l 706 958 l 817 958 l 817 443 b 469 -14 817 183 733 -14 b 97 435 167 -14 97 182 "},"Ū":{"ha":914,"x_min":0,"x_max":0,"o":"m 671 1164 l 671 1078 l 288 1078 l 288 1164 m 97 958 l 250 958 l 250 461 b 485 108 250 249 296 108 b 706 456 665 108 706 244 l 706 958 l 817 958 l 817 443 b 469 -14 817 183 733 -14 b 97 435 167 -14 97 182 "},"Ŭ":{"ha":914,"x_min":0,"x_max":0,"o":"m 326 1217 b 481 1115 333 1174 364 1115 b 633 1217 593 1115 626 1174 l 683 1217 b 481 1021 690 1124 636 1021 b 276 1217 324 1021 269 1124 m 97 958 l 250 958 l 250 461 b 485 108 250 249 296 108 b 706 456 665 108 706 244 l 706 958 l 817 958 l 817 443 b 469 -14 817 183 733 -14 b 97 435 167 -14 97 182 "},"Ů":{"ha":914,"x_min":0,"x_max":0,"o":"m 338 1132 b 483 1272 338 1211 399 1272 b 631 1132 572 1272 631 1211 b 483 993 631 1054 572 993 b 338 1132 397 993 338 1054 m 556 1122 b 485 1196 556 1164 525 1196 b 413 1122 442 1196 413 1164 b 485 1050 413 1082 442 1050 b 556 1122 525 1050 556 1082 m 97 958 l 250 958 l 250 461 b 485 108 250 249 296 108 b 706 456 665 108 706 244 l 706 958 l 817 958 l 817 443 b 469 -14 817 183 733 -14 b 97 435 167 -14 97 182 "},"Ű":{"ha":914,"x_min":0,"x_max":0,"o":"m 483 1211 l 543 1147 l 354 996 l 306 1044 m 706 1211 l 765 1147 l 576 996 l 528 1044 m 97 958 l 250 958 l 250 461 b 485 108 250 249 296 108 b 706 456 665 108 706 244 l 706 958 l 817 958 l 817 443 b 469 -14 817 183 733 -14 b 97 435 167 -14 97 182 "},"Ų":{"ha":914,"x_min":0,"x_max":0,"o":"m 97 958 l 250 958 l 250 461 b 485 108 250 249 296 108 b 706 456 665 108 706 244 l 706 958 l 817 958 l 817 443 b 715 82 817 293 789 164 b 621 -158 663 10 621 -82 b 672 -221 621 -197 633 -221 b 718 -160 703 -221 718 -194 l 756 -160 b 647 -287 758 -231 729 -287 b 525 -171 572 -287 525 -257 b 619 14 525 -97 567 -40 b 469 -14 578 -4 528 -14 b 97 435 167 -14 97 182 "},"Ẁ":{"ha":1289,"x_min":0,"x_max":0,"o":"m 546 1215 l 775 1051 l 739 1014 l 471 1122 m 174 958 l 382 175 l 624 954 l 729 954 l 958 183 l 1163 958 l 1283 958 l 1022 -4 l 872 -4 l 656 688 l 435 -4 l 285 -4 l 18 958 "},"Ẃ":{"ha":1289,"x_min":0,"x_max":0,"o":"m 829 1215 l 904 1122 l 636 1014 l 600 1051 m 174 958 l 382 175 l 624 954 l 729 954 l 958 183 l 1163 958 l 1283 958 l 1022 -4 l 872 -4 l 656 688 l 435 -4 l 285 -4 l 18 958 "},"Ŵ":{"ha":1289,"x_min":0,"x_max":0,"o":"m 650 1213 l 714 1213 l 908 1060 l 875 1013 l 682 1113 l 489 1013 l 457 1060 m 174 958 l 382 175 l 624 954 l 729 954 l 958 183 l 1163 958 l 1283 958 l 1022 -4 l 872 -4 l 656 688 l 435 -4 l 285 -4 l 18 958 "},"Ẅ":{"ha":1289,"x_min":0,"x_max":0,"o":"m 488 1172 l 617 1172 l 617 1042 l 488 1042 m 729 1172 l 858 1172 l 858 1042 l 729 1042 m 174 958 l 382 175 l 624 954 l 729 954 l 958 183 l 1163 958 l 1283 958 l 1022 -4 l 872 -4 l 656 688 l 435 -4 l 285 -4 l 18 958 "},"Ỳ":{"ha":765,"x_min":0,"x_max":0,"o":"m 315 1215 l 544 1051 l 508 1014 l 240 1122 m 463 0 l 319 0 l 319 400 l -4 958 l 172 958 l 417 528 l 658 958 l 778 958 l 463 396 "},"Ý":{"ha":765,"x_min":0,"x_max":0,"o":"m 538 1215 l 613 1122 l 344 1014 l 308 1051 m 463 0 l 319 0 l 319 400 l -4 958 l 172 958 l 417 528 l 658 958 l 778 958 l 463 396 "},"Ŷ":{"ha":765,"x_min":0,"x_max":0,"o":"m 379 1213 l 443 1213 l 638 1060 l 604 1013 l 411 1113 l 218 1013 l 186 1060 m 463 0 l 319 0 l 319 400 l -4 958 l 172 958 l 417 528 l 658 958 l 778 958 l 463 396 "},"Ÿ":{"ha":765,"x_min":0,"x_max":0,"o":"m 221 1172 l 350 1172 l 350 1042 l 221 1042 m 463 1172 l 592 1172 l 592 1042 l 463 1042 m 463 0 l 319 0 l 319 400 l -4 958 l 172 958 l 417 528 l 658 958 l 778 958 l 463 396 "},"Ź":{"ha":768,"x_min":0,"x_max":0,"o":"m 510 1213 l 585 1119 l 317 1011 l 281 1049 m 526 851 l 78 851 l 78 956 l 701 956 l 701 860 l 228 108 l 713 108 l 713 4 l 56 4 l 56 100 "},"Ž":{"ha":768,"x_min":0,"x_max":0,"o":"m 207 1213 l 400 1113 l 593 1213 l 625 1165 l 432 1013 l 368 1013 l 174 1165 m 526 851 l 78 851 l 78 956 l 701 956 l 701 860 l 228 108 l 713 108 l 713 4 l 56 4 l 56 100 "},"Ż":{"ha":768,"x_min":0,"x_max":0,"o":"m 319 1176 l 468 1176 l 468 1040 l 319 1040 m 526 851 l 78 851 l 78 956 l 701 956 l 701 860 l 228 108 l 713 108 l 713 4 l 56 4 l 56 100 "},"Ə":{"ha":953,"x_min":0,"x_max":0,"o":"m 882 485 b 451 -15 882 169 704 -15 b 93 350 153 -15 93 203 b 99 449 93 381 96 428 l 731 449 b 731 461 731 453 731 457 l 731 490 b 435 842 728 738 590 842 b 163 685 276 842 194 757 l 97 685 b 461 969 128 879 278 969 b 882 485 704 969 882 800 m 454 103 b 721 351 588 103 690 186 l 233 351 b 454 103 231 307 229 103 "},"Ŋ":{"ha":939,"x_min":0,"x_max":0,"o":"m 592 -343 b 368 -117 419 -343 368 -231 l 436 -117 b 568 -246 439 -186 475 -246 b 714 -7 672 -246 714 -168 l 224 733 l 224 0 l 111 0 l 111 958 l 251 958 l 714 253 l 714 958 l 828 958 l 828 -7 b 592 -343 826 -212 768 -343 "},"Ð":{"ha":922,"x_min":0,"x_max":0,"o":"m 111 532 l 111 958 l 374 958 b 867 485 711 958 867 754 b 374 0 867 113 625 0 l 111 0 l 111 463 l 14 463 l 14 532 m 254 463 l 254 104 l 375 104 b 715 485 586 104 715 235 b 375 854 715 701 611 854 l 254 854 l 254 532 l 478 532 l 478 463 "},"Þ":{"ha":782,"x_min":0,"x_max":0,"o":"m 254 958 l 254 774 l 431 774 b 757 492 619 774 757 675 b 435 197 757 282 610 197 l 254 197 l 254 0 l 111 0 l 111 958 m 254 669 l 254 301 l 404 301 b 615 486 511 301 615 347 b 394 669 615 615 519 669 "},"a":{"ha":667,"x_min":0,"x_max":0,"o":"m 53 160 b 296 360 53 267 119 360 b 431 333 340 360 397 349 l 431 425 b 289 582 431 531 382 582 b 138 450 197 582 147 521 l 85 450 b 324 681 85 574 153 681 b 558 450 483 681 558 592 l 558 186 b 617 50 558 72 585 50 b 642 58 625 50 633 53 l 654 35 b 563 -11 642 11 606 -11 b 432 106 489 -11 442 14 b 232 -14 397 39 335 -14 b 53 160 114 -14 53 61 m 186 171 b 285 74 186 108 222 74 b 431 274 389 74 431 178 l 431 281 b 329 296 406 288 367 296 b 186 171 231 296 186 247 "},"b":{"ha":764,"x_min":0,"x_max":0,"o":"m 236 986 l 236 515 b 446 681 268 613 333 681 b 708 338 576 681 708 576 b 446 -14 708 122 599 -14 b 228 182 342 -14 261 47 l 215 0 l 101 0 l 101 979 m 571 324 b 401 574 571 500 489 574 b 236 319 303 574 236 493 b 403 82 236 171 317 82 b 571 324 506 82 571 179 "},"c":{"ha":651,"x_min":0,"x_max":0,"o":"m 56 317 b 349 681 56 522 167 681 b 574 510 507 681 564 593 b 574 447 576 488 576 467 l 513 447 b 368 578 504 506 476 578 b 193 324 253 578 193 467 b 379 78 193 163 278 78 b 547 231 481 78 535 136 l 596 231 b 353 -14 596 89 514 -14 b 56 317 206 -14 56 71 "},"d":{"ha":764,"x_min":0,"x_max":0,"o":"m 56 331 b 318 681 56 546 165 681 b 528 508 414 681 490 621 l 528 979 l 663 986 l 663 0 l 556 0 l 542 190 b 318 -14 517 58 450 -14 b 56 331 188 -14 56 90 m 528 338 b 361 574 528 486 447 574 b 193 333 258 574 193 478 b 363 82 193 157 275 82 b 528 338 461 82 528 164 "},"e":{"ha":667,"x_min":0,"x_max":0,"o":"m 56 313 b 350 681 56 518 167 681 b 589 457 528 681 589 567 b 581 346 589 424 583 364 l 192 346 l 192 324 b 386 81 192 171 257 81 b 563 231 497 81 553 142 l 611 231 b 356 -14 611 81 517 -14 b 56 313 169 -14 56 97 m 358 575 b 197 417 272 575 215 515 l 478 417 b 481 454 479 421 481 436 b 358 575 481 513 458 575 "},"f":{"ha":424,"x_min":0,"x_max":0,"o":"m 128 586 b 128 594 128 589 128 593 l 21 594 l 21 646 l 125 660 b 114 794 121 711 114 740 b 311 986 114 901 185 986 b 464 885 403 986 450 943 b 467 821 468 865 469 846 l 425 821 b 332 894 421 864 393 894 b 228 789 261 894 228 846 b 251 660 229 742 242 714 l 426 660 l 426 594 l 260 594 b 263 515 261 572 263 546 l 263 0 l 128 0 "},"g":{"ha":699,"x_min":0,"x_max":0,"o":"m 71 446 b 336 681 71 583 171 681 b 549 582 422 681 501 644 b 626 681 556 664 594 681 b 701 614 682 681 699 647 b 696 572 703 599 700 583 l 672 572 b 638 615 672 594 665 615 b 590 526 610 615 590 592 l 590 443 b 336 208 586 304 494 208 b 233 222 300 208 265 213 b 171 147 208 211 171 189 b 331 79 171 99 214 79 l 397 79 b 663 -112 569 79 663 19 b 328 -347 663 -256 549 -347 b 43 -154 132 -347 43 -271 b 61 -86 43 -124 53 -103 l 111 -86 b 106 -129 108 -97 106 -114 b 324 -258 106 -219 181 -258 b 535 -142 475 -258 535 -215 b 378 -53 535 -83 486 -53 l 294 -53 b 78 99 147 -53 78 -11 b 188 240 78 171 140 217 b 71 446 117 278 71 346 m 468 440 b 333 588 468 528 410 588 b 194 436 247 588 194 519 b 332 285 194 333 256 285 b 468 440 411 285 468 343 "},"h":{"ha":750,"x_min":0,"x_max":0,"o":"m 525 0 l 525 354 b 393 568 525 503 493 568 b 236 275 286 568 239 458 l 236 0 l 101 0 l 101 979 l 236 986 l 236 464 b 451 681 258 582 315 681 b 660 417 613 681 660 576 l 660 0 "},"i":{"ha":350,"x_min":0,"x_max":0,"o":"m 103 986 l 251 986 l 251 850 l 103 850 m 240 667 l 240 0 l 106 0 l 106 660 "},"j":{"ha":372,"x_min":0,"x_max":0,"o":"m 132 986 l 281 986 l 281 850 l 132 850 m 4 -185 b 68 -254 10 -228 25 -254 b 132 -118 111 -254 132 -211 l 132 660 l 267 667 l 267 -67 b 97 -347 267 -256 221 -347 b -37 -185 -17 -347 -37 -262 "},"k":{"ha":690,"x_min":0,"x_max":0,"o":"m 236 986 l 236 397 l 506 660 l 638 660 l 406 438 l 672 0 l 515 0 l 313 347 l 236 275 l 236 0 l 101 0 l 101 979 "},"l":{"ha":343,"x_min":0,"x_max":0,"o":"m 239 986 l 239 0 l 104 0 l 104 979 "},"m":{"ha":1144,"x_min":0,"x_max":0,"o":"m 508 0 l 508 354 b 383 568 508 503 482 568 b 232 275 276 568 232 457 l 232 0 l 97 0 l 97 660 l 214 667 l 228 467 l 228 461 b 440 681 247 581 300 681 b 642 453 590 681 636 592 b 857 681 664 576 722 681 b 1054 417 1019 681 1054 576 l 1054 0 l 919 0 l 919 354 b 794 568 919 503 893 568 b 643 268 685 568 643 442 l 643 0 "},"n":{"ha":746,"x_min":0,"x_max":0,"o":"m 521 0 l 521 354 b 390 568 521 503 489 568 b 232 275 283 568 232 458 l 232 0 l 97 0 l 97 660 l 214 667 l 228 467 l 228 460 b 447 681 247 583 304 681 b 656 417 610 681 656 576 l 656 0 "},"o":{"ha":717,"x_min":0,"x_max":0,"o":"m 56 332 b 360 681 56 547 181 681 b 661 329 529 681 661 560 b 360 -14 661 113 547 -14 b 56 332 183 -14 56 104 m 526 335 b 358 575 526 479 467 575 b 190 335 256 575 190 485 b 360 82 190 168 256 82 b 526 335 458 82 526 164 "},"p":{"ha":760,"x_min":0,"x_max":0,"o":"m 211 667 l 224 485 b 442 681 250 601 317 681 b 704 338 572 681 704 576 b 442 -14 704 122 594 -14 b 232 157 344 -14 268 40 l 232 -333 l 97 -333 l 97 660 m 567 321 b 399 575 567 500 485 575 b 232 318 299 575 232 490 b 399 82 232 168 313 82 b 567 321 503 82 567 176 "},"q":{"ha":761,"x_min":0,"x_max":0,"o":"m 56 331 b 318 681 56 546 165 681 b 535 494 419 681 500 618 l 536 503 l 550 660 l 664 667 l 664 -333 l 528 -333 l 528 139 b 318 -14 494 42 429 -14 b 56 331 188 -14 56 90 m 528 338 b 361 574 528 486 447 574 b 193 335 258 574 193 479 b 363 82 193 157 275 82 b 528 338 461 82 528 164 "},"r":{"ha":568,"x_min":0,"x_max":0,"o":"m 211 667 l 222 465 b 406 681 242 581 289 681 b 546 510 514 681 546 576 b 536 443 546 481 542 463 l 479 443 b 471 506 479 464 478 486 b 385 567 460 540 435 567 b 232 246 268 567 232 443 l 232 0 l 97 0 l 97 660 "},"s":{"ha":613,"x_min":0,"x_max":0,"o":"m 111 214 b 286 61 128 117 186 61 b 425 160 360 61 425 85 b 283 276 425 222 389 250 b 75 481 149 311 75 364 b 318 681 75 603 174 681 b 535 483 458 681 549 607 l 474 483 b 332 600 469 544 422 600 b 206 504 258 600 206 572 b 365 392 206 439 251 422 b 560 189 507 354 560 290 b 307 -14 560 64 458 -14 b 53 214 136 -14 53 71 "},"t":{"ha":481,"x_min":0,"x_max":0,"o":"m 114 594 l 7 594 l 7 646 l 114 660 l 114 817 l 249 826 l 249 660 l 428 660 l 428 594 l 249 594 l 249 182 b 331 78 249 121 265 78 b 408 144 385 78 408 103 l 443 144 b 290 -14 443 44 400 -14 b 114 201 167 -14 114 51 "},"u":{"ha":746,"x_min":0,"x_max":0,"o":"m 517 196 b 299 -14 494 81 436 -14 b 90 250 136 -14 90 90 l 90 660 l 225 667 l 225 313 b 357 100 225 164 257 100 b 514 393 464 100 514 208 l 514 660 l 649 667 l 649 0 l 525 0 l 518 181 "},"v":{"ha":629,"x_min":0,"x_max":0,"o":"m 160 660 l 329 154 l 501 660 l 619 660 l 383 0 l 247 0 l 11 660 "},"w":{"ha":979,"x_min":0,"x_max":0,"o":"m 158 660 l 306 169 l 460 619 l 553 619 l 710 169 l 856 660 l 965 660 l 765 0 l 642 0 l 485 435 l 328 0 l 217 0 l 14 660 "},"x":{"ha":636,"x_min":0,"x_max":0,"o":"m 293 271 l 131 0 l 18 0 l 235 340 l 36 660 l 189 660 l 338 418 l 485 660 l 596 660 l 394 349 l 618 0 l 457 0 "},"y":{"ha":644,"x_min":0,"x_max":0,"o":"m 58 -193 b 131 -256 58 -226 78 -256 b 238 -133 183 -256 207 -218 l 282 -15 l 11 660 l 156 660 l 351 176 l 514 660 l 633 660 l 314 -194 b 149 -347 269 -310 208 -347 b 24 -193 15 -347 22 -235 "},"z":{"ha":596,"x_min":0,"x_max":0,"o":"m 396 563 l 71 563 l 71 660 l 543 660 l 543 569 l 210 97 l 547 97 l 547 0 l 49 0 l 49 74 "},"à":{"ha":667,"x_min":0,"x_max":0,"o":"m 250 1064 l 439 811 l 383 765 l 165 986 m 53 160 b 296 360 53 267 119 360 b 431 333 340 360 397 349 l 431 425 b 289 582 431 531 382 582 b 138 450 197 582 147 521 l 85 450 b 324 681 85 574 153 681 b 558 450 483 681 558 592 l 558 186 b 617 50 558 72 585 50 b 642 58 625 50 633 53 l 654 35 b 563 -11 642 11 606 -11 b 432 106 489 -11 442 14 b 232 -14 397 39 335 -14 b 53 160 114 -14 53 61 m 186 171 b 285 74 186 108 222 74 b 431 274 389 74 431 178 l 431 281 b 329 296 406 288 367 296 b 186 171 231 296 186 247 "},"á":{"ha":667,"x_min":0,"x_max":0,"o":"m 433 1064 l 518 986 l 300 765 l 244 811 m 53 160 b 296 360 53 267 119 360 b 431 333 340 360 397 349 l 431 425 b 289 582 431 531 382 582 b 138 450 197 582 147 521 l 85 450 b 324 681 85 574 153 681 b 558 450 483 681 558 592 l 558 186 b 617 50 558 72 585 50 b 642 58 625 50 633 53 l 654 35 b 563 -11 642 11 606 -11 b 432 106 489 -11 442 14 b 232 -14 397 39 335 -14 b 53 160 114 -14 53 61 m 186 171 b 285 74 186 108 222 74 b 431 274 389 74 431 178 l 431 281 b 329 296 406 288 367 296 b 186 171 231 296 186 247 "},"â":{"ha":667,"x_min":0,"x_max":0,"o":"m 297 1046 l 371 1046 l 560 808 l 513 764 l 335 939 l 156 764 l 108 808 m 53 160 b 296 360 53 267 119 360 b 431 333 340 360 397 349 l 431 425 b 289 582 431 531 382 582 b 138 450 197 582 147 521 l 85 450 b 324 681 85 574 153 681 b 558 450 483 681 558 592 l 558 186 b 617 50 558 72 585 50 b 642 58 625 50 633 53 l 654 35 b 563 -11 642 11 606 -11 b 432 106 489 -11 442 14 b 232 -14 397 39 335 -14 b 53 160 114 -14 53 61 m 186 171 b 285 74 186 108 222 74 b 431 274 389 74 431 178 l 431 281 b 329 296 406 288 367 296 b 186 171 231 296 186 247 "},"ã":{"ha":667,"x_min":0,"x_max":0,"o":"m 131 807 b 228 1018 90 929 131 1018 b 421 904 344 1018 344 904 b 471 1019 476 904 486 960 l 507 1019 b 410 808 546 900 507 808 b 217 922 301 808 303 922 b 165 807 161 922 150 867 l 131 807 m 53 160 b 296 360 53 267 119 360 b 431 333 340 360 397 349 l 431 425 b 289 582 431 531 382 582 b 138 450 197 582 147 521 l 85 450 b 324 681 85 574 153 681 b 558 450 483 681 558 592 l 558 186 b 617 50 558 72 585 50 b 642 58 625 50 633 53 l 654 35 b 563 -11 642 11 606 -11 b 432 106 489 -11 442 14 b 232 -14 397 39 335 -14 b 53 160 114 -14 53 61 m 186 171 b 285 74 186 108 222 74 b 431 274 389 74 431 178 l 431 281 b 329 296 406 288 367 296 b 186 171 231 296 186 247 "},"ä":{"ha":667,"x_min":0,"x_max":0,"o":"m 153 986 l 282 986 l 282 856 l 153 856 m 394 986 l 524 986 l 524 856 l 394 856 m 53 160 b 296 360 53 267 119 360 b 431 333 340 360 397 349 l 431 425 b 289 582 431 531 382 582 b 138 450 197 582 147 521 l 85 450 b 324 681 85 574 153 681 b 558 450 483 681 558 592 l 558 186 b 617 50 558 72 585 50 b 642 58 625 50 633 53 l 654 35 b 563 -11 642 11 606 -11 b 432 106 489 -11 442 14 b 232 -14 397 39 335 -14 b 53 160 114 -14 53 61 m 186 171 b 285 74 186 108 222 74 b 431 274 389 74 431 178 l 431 281 b 329 296 406 288 367 296 b 186 171 231 296 186 247 "},"ā":{"ha":667,"x_min":0,"x_max":0,"o":"m 529 986 l 529 900 l 146 900 l 146 986 m 53 160 b 296 360 53 267 119 360 b 431 333 340 360 397 349 l 431 425 b 289 582 431 531 382 582 b 138 450 197 582 147 521 l 85 450 b 324 681 85 574 153 681 b 558 450 483 681 558 592 l 558 186 b 617 50 558 72 585 50 b 642 58 625 50 633 53 l 654 35 b 563 -11 642 11 606 -11 b 432 106 489 -11 442 14 b 232 -14 397 39 335 -14 b 53 160 114 -14 53 61 m 186 171 b 285 74 186 108 222 74 b 431 274 389 74 431 178 l 431 281 b 329 296 406 288 367 296 b 186 171 231 296 186 247 "},"ă":{"ha":667,"x_min":0,"x_max":0,"o":"m 347 800 b 147 1033 188 800 140 929 l 199 1033 b 347 900 204 985 228 900 b 497 1033 468 900 490 985 l 547 1033 b 347 800 554 929 507 800 m 53 160 b 296 360 53 267 119 360 b 431 333 340 360 397 349 l 431 425 b 289 582 431 531 382 582 b 138 450 197 582 147 521 l 85 450 b 324 681 85 574 153 681 b 558 450 483 681 558 592 l 558 186 b 617 50 558 72 585 50 b 642 58 625 50 633 53 l 654 35 b 563 -11 642 11 606 -11 b 432 106 489 -11 442 14 b 232 -14 397 39 335 -14 b 53 160 114 -14 53 61 m 186 171 b 285 74 186 108 222 74 b 431 274 389 74 431 178 l 431 281 b 329 296 406 288 367 296 b 186 171 231 296 186 247 "},"å":{"ha":667,"x_min":0,"x_max":0,"o":"m 190 947 b 340 1092 190 1029 253 1092 b 493 947 433 1092 493 1029 b 340 803 493 867 433 803 b 190 947 251 803 190 867 m 418 938 b 342 1018 418 983 386 1018 b 264 938 296 1018 264 983 b 342 860 264 893 296 860 b 418 938 386 860 418 893 m 53 160 b 296 360 53 267 119 360 b 431 333 340 360 397 349 l 431 425 b 289 582 431 531 382 582 b 138 450 197 582 147 521 l 85 450 b 324 681 85 574 153 681 b 558 450 483 681 558 592 l 558 186 b 617 50 558 72 585 50 b 642 58 625 50 633 53 l 654 35 b 563 -11 642 11 606 -11 b 432 106 489 -11 442 14 b 232 -14 397 39 335 -14 b 53 160 114 -14 53 61 m 186 171 b 285 74 186 108 222 74 b 431 274 389 74 431 178 l 431 281 b 329 296 406 288 367 296 b 186 171 231 296 186 247 "},"ǻ":{"ha":667,"x_min":0,"x_max":0,"o":"m 435 1289 l 510 1196 l 242 1088 l 206 1125 m 183 885 b 333 1029 183 967 246 1029 b 486 885 426 1029 486 967 b 333 740 486 804 426 740 b 183 885 244 740 183 804 m 411 875 b 335 956 411 921 379 956 b 257 875 289 956 257 921 b 335 797 257 831 289 797 b 411 875 379 797 411 831 m 53 160 b 296 360 53 267 119 360 b 431 333 340 360 397 349 l 431 425 b 289 582 431 531 382 582 b 138 450 197 582 147 521 l 85 450 b 324 681 85 574 153 681 b 558 450 483 681 558 592 l 558 186 b 617 50 558 72 585 50 b 642 58 625 50 633 53 l 654 35 b 563 -11 642 11 606 -11 b 432 106 489 -11 442 14 b 232 -14 397 39 335 -14 b 53 160 114 -14 53 61 m 186 171 b 285 74 186 108 222 74 b 431 274 389 74 431 178 l 431 281 b 329 296 406 288 367 296 b 186 171 231 296 186 247 "},"ą":{"ha":667,"x_min":0,"x_max":0,"o":"m 53 160 b 296 360 53 267 119 360 b 431 333 340 360 397 349 l 431 425 b 289 582 431 531 382 582 b 138 450 197 582 147 521 l 85 450 b 324 681 85 574 153 681 b 558 450 483 681 558 592 l 558 186 b 617 50 558 72 585 50 b 642 58 625 50 633 53 l 654 35 b 607 -3 646 19 629 6 b 501 -162 550 -33 501 -86 b 556 -225 501 -197 517 -225 b 606 -160 590 -225 606 -194 l 638 -160 b 529 -287 642 -231 613 -287 b 417 -179 454 -287 417 -243 b 539 -10 417 -101 472 -53 b 432 106 479 -4 440 25 b 232 -14 397 39 335 -14 b 53 160 114 -14 53 61 m 186 171 b 285 74 186 108 222 74 b 431 274 389 74 431 178 l 431 281 b 329 296 406 288 367 296 b 186 171 231 296 186 247 "},"æ":{"ha":1036,"x_min":0,"x_max":0,"o":"m 981 235 b 726 -14 981 93 888 -14 b 485 114 611 -14 531 31 b 249 -14 438 43 357 -14 b 53 156 115 -14 53 57 b 296 356 53 263 119 356 b 431 329 340 356 397 343 l 431 425 b 279 585 431 525 385 585 b 125 450 179 585 133 522 l 85 450 b 314 681 85 574 150 681 b 511 568 418 681 479 636 b 726 681 558 638 631 681 b 958 457 897 681 958 567 b 950 349 958 424 954 367 l 561 349 l 561 347 l 561 324 b 758 81 561 171 624 81 b 939 235 871 81 935 144 l 981 235 m 728 575 b 567 414 646 575 585 518 l 849 414 b 851 454 849 418 851 436 b 728 575 851 504 836 575 m 285 74 b 431 274 389 74 431 175 l 431 281 b 329 296 406 289 365 296 b 181 171 231 296 181 247 b 285 74 181 108 222 74 "},"ǽ":{"ha":1036,"x_min":0,"x_max":0,"o":"m 704 1064 l 789 986 l 571 765 l 515 811 m 981 235 b 726 -14 981 93 888 -14 b 485 114 611 -14 531 31 b 249 -14 438 43 357 -14 b 53 156 115 -14 53 57 b 296 356 53 263 119 356 b 431 329 340 356 397 343 l 431 425 b 279 585 431 525 385 585 b 125 450 179 585 133 522 l 85 450 b 314 681 85 574 150 681 b 511 568 418 681 479 636 b 726 681 558 638 631 681 b 958 457 897 681 958 567 b 950 349 958 424 954 367 l 561 349 l 561 347 l 561 324 b 758 81 561 171 624 81 b 939 235 871 81 935 144 l 981 235 m 728 575 b 567 414 646 575 585 518 l 849 414 b 851 454 849 418 851 436 b 728 575 851 504 836 575 m 285 74 b 431 274 389 74 431 175 l 431 281 b 329 296 406 289 365 296 b 181 171 231 296 181 247 b 285 74 181 108 222 74 "},"ć":{"ha":651,"x_min":0,"x_max":0,"o":"m 438 1064 l 522 986 l 304 765 l 249 811 m 56 317 b 349 681 56 522 167 681 b 574 510 507 681 564 593 b 574 447 576 488 576 467 l 513 447 b 368 578 504 506 476 578 b 193 324 253 578 193 467 b 379 78 193 163 278 78 b 547 231 481 78 535 136 l 596 231 b 353 -14 596 89 514 -14 b 56 317 206 -14 56 71 "},"ĉ":{"ha":651,"x_min":0,"x_max":0,"o":"m 325 1046 l 399 1046 l 588 808 l 540 764 l 363 939 l 183 764 l 136 808 m 56 317 b 349 681 56 522 167 681 b 574 510 507 681 564 593 b 574 447 576 488 576 467 l 513 447 b 368 578 504 506 476 578 b 193 324 253 578 193 467 b 379 78 193 163 278 78 b 547 231 481 78 535 136 l 596 231 b 353 -14 596 89 514 -14 b 56 317 206 -14 56 71 "},"č":{"ha":653,"x_min":0,"x_max":0,"o":"m 182 1053 l 357 878 l 533 1053 l 583 1014 l 394 774 l 321 774 l 132 1014 m 56 317 b 349 681 56 522 167 681 b 574 510 507 681 564 593 b 574 447 576 488 576 467 l 513 447 b 368 578 504 506 476 578 b 193 324 253 578 193 467 b 379 78 193 163 278 78 b 547 231 481 78 535 136 l 596 231 b 353 -14 596 89 514 -14 b 56 317 206 -14 56 71 "},"ċ":{"ha":651,"x_min":0,"x_max":0,"o":"m 285 986 l 433 986 l 433 850 l 285 850 m 56 317 b 349 681 56 522 167 681 b 574 510 507 681 564 593 b 574 447 576 488 576 467 l 513 447 b 368 578 504 506 476 578 b 193 324 253 578 193 467 b 379 78 193 163 278 78 b 547 231 481 78 535 136 l 596 231 b 353 -14 596 89 514 -14 b 56 317 206 -14 56 71 "},"ç":{"ha":651,"x_min":0,"x_max":0,"o":"m 293 -160 b 343 -219 292 -200 306 -219 b 390 -165 371 -219 390 -200 b 310 -110 390 -115 358 -100 l 283 -96 l 307 -11 b 56 317 176 6 56 97 b 349 681 56 522 167 681 b 574 510 507 681 564 593 b 574 447 576 488 576 467 l 513 447 b 368 578 504 506 476 578 b 193 324 253 578 193 467 b 379 78 193 163 278 78 b 547 231 481 78 535 136 l 596 231 b 353 -14 596 89 514 -14 l 344 -64 b 478 -165 421 -53 478 -86 b 363 -276 478 -239 429 -276 b 260 -160 279 -276 253 -224 "},"ď":{"ha":901,"x_min":0,"x_max":0,"o":"m 56 331 b 318 681 56 546 165 681 b 528 508 414 681 490 621 l 528 979 l 663 986 l 663 0 l 556 0 l 542 190 b 318 -14 517 58 450 -14 b 56 331 188 -14 56 90 m 825 986 l 936 986 l 850 710 l 772 710 m 528 338 b 361 574 528 486 447 574 b 193 333 258 574 193 478 b 363 82 193 157 275 82 b 528 338 461 82 528 164 "},"đ":{"ha":775,"x_min":0,"x_max":0,"o":"m 56 331 b 318 681 56 546 165 681 b 528 508 414 681 490 621 l 528 799 l 326 799 l 326 864 l 528 864 l 528 979 l 663 986 l 663 864 l 758 864 l 758 799 l 663 799 l 663 0 l 556 0 l 542 190 b 318 -14 517 58 450 -14 b 56 331 188 -14 56 90 m 528 338 b 361 574 528 486 447 574 b 193 333 258 574 193 478 b 363 82 193 157 275 82 b 528 338 461 82 528 164 "},"è":{"ha":667,"x_min":0,"x_max":0,"o":"m 276 1064 l 465 811 l 410 765 l 192 986 m 56 313 b 350 681 56 518 167 681 b 589 457 528 681 589 567 b 581 346 589 424 583 364 l 192 346 l 192 324 b 386 81 192 171 257 81 b 563 231 497 81 553 142 l 611 231 b 356 -14 611 81 517 -14 b 56 313 169 -14 56 97 m 358 575 b 197 417 272 575 215 515 l 478 417 b 481 454 479 421 481 436 b 358 575 481 513 458 575 "},"é":{"ha":667,"x_min":0,"x_max":0,"o":"m 461 1064 l 546 986 l 328 765 l 272 811 m 56 313 b 350 681 56 518 167 681 b 589 457 528 681 589 567 b 581 346 589 424 583 364 l 192 346 l 192 324 b 386 81 192 171 257 81 b 563 231 497 81 553 142 l 611 231 b 356 -14 611 81 517 -14 b 56 313 169 -14 56 97 m 358 575 b 197 417 272 575 215 515 l 478 417 b 481 454 479 421 481 436 b 358 575 481 513 458 575 "},"ê":{"ha":667,"x_min":0,"x_max":0,"o":"m 325 1046 l 399 1046 l 588 808 l 540 764 l 363 939 l 183 764 l 136 808 m 56 313 b 350 681 56 518 167 681 b 589 457 528 681 589 567 b 581 346 589 424 583 364 l 192 346 l 192 324 b 386 81 192 171 257 81 b 563 231 497 81 553 142 l 611 231 b 356 -14 611 81 517 -14 b 56 313 169 -14 56 97 m 358 575 b 197 417 272 575 215 515 l 478 417 b 481 454 479 421 481 436 b 358 575 481 513 458 575 "},"ě":{"ha":667,"x_min":0,"x_max":0,"o":"m 178 1053 l 353 878 l 529 1053 l 579 1014 l 390 774 l 317 774 l 128 1014 m 56 313 b 350 681 56 518 167 681 b 589 457 528 681 589 567 b 581 346 589 424 583 364 l 192 346 l 192 324 b 386 81 192 171 257 81 b 563 231 497 81 553 142 l 611 231 b 356 -14 611 81 517 -14 b 56 313 169 -14 56 97 m 358 575 b 197 417 272 575 215 515 l 478 417 b 481 454 479 421 481 436 b 358 575 481 513 458 575 "},"ë":{"ha":667,"x_min":0,"x_max":0,"o":"m 178 986 l 307 986 l 307 856 l 178 856 m 419 986 l 549 986 l 549 856 l 419 856 m 56 313 b 350 681 56 518 167 681 b 589 457 528 681 589 567 b 581 346 589 424 583 364 l 192 346 l 192 324 b 386 81 192 171 257 81 b 563 231 497 81 553 142 l 611 231 b 356 -14 611 81 517 -14 b 56 313 169 -14 56 97 m 358 575 b 197 417 272 575 215 515 l 478 417 b 481 454 479 421 481 436 b 358 575 481 513 458 575 "},"ē":{"ha":667,"x_min":0,"x_max":0,"o":"m 553 986 l 553 900 l 169 900 l 169 986 m 56 313 b 350 681 56 518 167 681 b 589 457 528 681 589 567 b 581 346 589 424 583 364 l 192 346 l 192 324 b 386 81 192 171 257 81 b 563 231 497 81 553 142 l 611 231 b 356 -14 611 81 517 -14 b 56 313 169 -14 56 97 m 358 575 b 197 417 272 575 215 515 l 478 417 b 481 454 479 421 481 436 b 358 575 481 513 458 575 "},"ĕ":{"ha":667,"x_min":0,"x_max":0,"o":"m 367 800 b 167 1033 207 800 160 929 l 218 1033 b 367 900 224 985 247 900 b 517 1033 488 900 510 985 l 567 1033 b 367 800 574 929 526 800 m 56 313 b 350 681 56 518 167 681 b 589 457 528 681 589 567 b 581 346 589 424 583 364 l 192 346 l 192 324 b 386 81 192 171 257 81 b 563 231 497 81 553 142 l 611 231 b 356 -14 611 81 517 -14 b 56 313 169 -14 56 97 m 358 575 b 197 417 272 575 215 515 l 478 417 b 481 454 479 421 481 436 b 358 575 481 513 458 575 "},"ė":{"ha":667,"x_min":0,"x_max":0,"o":"m 288 986 l 436 986 l 436 850 l 288 850 m 56 313 b 350 681 56 518 167 681 b 589 457 528 681 589 567 b 581 346 589 424 583 364 l 192 346 l 192 324 b 386 81 192 171 257 81 b 563 231 497 81 553 142 l 611 231 b 356 -14 611 81 517 -14 b 56 313 169 -14 56 97 m 358 575 b 197 417 272 575 215 515 l 478 417 b 481 454 479 421 481 436 b 358 575 481 513 458 575 "},"ę":{"ha":667,"x_min":0,"x_max":0,"o":"m 56 313 b 350 681 56 518 167 681 b 589 457 528 681 589 567 b 581 346 589 424 583 364 l 192 346 l 192 324 b 386 81 192 171 257 81 b 563 231 497 81 553 142 l 611 231 b 542 50 611 154 588 93 b 469 -158 500 -15 469 -93 b 521 -221 469 -197 482 -221 b 567 -160 551 -221 567 -194 l 604 -160 b 496 -287 607 -231 578 -287 b 374 -171 421 -287 374 -257 b 456 0 374 -103 410 -49 b 356 -14 426 -8 393 -14 b 56 313 169 -14 56 97 m 358 575 b 197 417 272 575 215 515 l 478 417 b 481 454 479 421 481 436 b 358 575 481 513 458 575 "},"ĝ":{"ha":699,"x_min":0,"x_max":0,"o":"m 308 1046 l 382 1046 l 571 808 l 524 764 l 346 939 l 167 764 l 119 808 m 71 446 b 336 681 71 583 171 681 b 549 582 422 681 501 644 b 626 681 556 664 594 681 b 701 614 682 681 699 647 b 696 572 703 599 700 583 l 672 572 b 638 615 672 594 665 615 b 590 526 610 615 590 592 l 590 443 b 336 208 586 304 494 208 b 233 222 300 208 265 213 b 171 147 208 211 171 189 b 331 79 171 99 214 79 l 397 79 b 663 -112 569 79 663 19 b 328 -347 663 -256 549 -347 b 43 -154 132 -347 43 -271 b 61 -86 43 -124 53 -103 l 111 -86 b 106 -129 108 -97 106 -114 b 324 -258 106 -219 181 -258 b 535 -142 475 -258 535 -215 b 378 -53 535 -83 486 -53 l 294 -53 b 78 99 147 -53 78 -11 b 188 240 78 171 140 217 b 71 446 117 278 71 346 m 468 440 b 333 588 468 528 410 588 b 194 436 247 588 194 519 b 332 285 194 333 256 285 b 468 440 411 285 468 343 "},"ğ":{"ha":699,"x_min":0,"x_max":0,"o":"m 340 800 b 140 1033 181 800 133 929 l 192 1033 b 340 900 197 985 221 900 b 490 1033 461 900 483 985 l 540 1033 b 340 800 547 929 500 800 m 71 446 b 336 681 71 583 171 681 b 549 582 422 681 501 644 b 626 681 556 664 594 681 b 701 614 682 681 699 647 b 696 572 703 599 700 583 l 672 572 b 638 615 672 594 665 615 b 590 526 610 615 590 592 l 590 443 b 336 208 586 304 494 208 b 233 222 300 208 265 213 b 171 147 208 211 171 189 b 331 79 171 99 214 79 l 397 79 b 663 -112 569 79 663 19 b 328 -347 663 -256 549 -347 b 43 -154 132 -347 43 -271 b 61 -86 43 -124 53 -103 l 111 -86 b 106 -129 108 -97 106 -114 b 324 -258 106 -219 181 -258 b 535 -142 475 -258 535 -215 b 378 -53 535 -83 486 -53 l 294 -53 b 78 99 147 -53 78 -11 b 188 240 78 171 140 217 b 71 446 117 278 71 346 m 468 440 b 333 588 468 528 410 588 b 194 436 247 588 194 519 b 332 285 194 333 256 285 b 468 440 411 285 468 343 "},"ġ":{"ha":699,"x_min":0,"x_max":0,"o":"m 267 986 l 415 986 l 415 850 l 267 850 m 71 446 b 336 681 71 583 171 681 b 549 582 422 681 501 644 b 626 681 556 664 594 681 b 701 614 682 681 699 647 b 696 572 703 599 700 583 l 672 572 b 638 615 672 594 665 615 b 590 526 610 615 590 592 l 590 443 b 336 208 586 304 494 208 b 233 222 300 208 265 213 b 171 147 208 211 171 189 b 331 79 171 99 214 79 l 397 79 b 663 -112 569 79 663 19 b 328 -347 663 -256 549 -347 b 43 -154 132 -347 43 -271 b 61 -86 43 -124 53 -103 l 111 -86 b 106 -129 108 -97 106 -114 b 324 -258 106 -219 181 -258 b 535 -142 475 -258 535 -215 b 378 -53 535 -83 486 -53 l 294 -53 b 78 99 147 -53 78 -11 b 188 240 78 171 140 217 b 71 446 117 278 71 346 m 468 440 b 333 588 468 528 410 588 b 194 436 247 588 194 519 b 332 285 194 333 256 285 b 468 440 411 285 468 343 "},"ģ":{"ha":699,"x_min":0,"x_max":0,"o":"m 401 1022 l 469 1007 l 407 783 l 301 783 m 71 446 b 336 681 71 583 171 681 b 549 582 422 681 501 644 b 626 681 556 664 594 681 b 701 614 682 681 699 647 b 696 572 703 599 700 583 l 672 572 b 638 615 672 594 665 615 b 590 526 610 615 590 592 l 590 443 b 336 208 586 304 494 208 b 233 222 300 208 265 213 b 171 147 208 211 171 189 b 331 79 171 99 214 79 l 397 79 b 663 -112 569 79 663 19 b 328 -347 663 -256 549 -347 b 43 -154 132 -347 43 -271 b 61 -86 43 -124 53 -103 l 111 -86 b 106 -129 108 -97 106 -114 b 324 -258 106 -219 181 -258 b 535 -142 475 -258 535 -215 b 378 -53 535 -83 486 -53 l 294 -53 b 78 99 147 -53 78 -11 b 188 240 78 171 140 217 b 71 446 117 278 71 346 m 468 440 b 333 588 468 528 410 588 b 194 436 247 588 194 519 b 332 285 194 333 256 285 b 468 440 411 285 468 343 "},"ĥ":{"ha":750,"x_min":0,"x_max":0,"o":"m 18 1011 l -18 1050 l 146 1208 l 201 1208 l 365 1050 l 331 1011 l 174 1121 m 525 0 l 525 354 b 393 568 525 503 493 568 b 236 275 286 568 239 458 l 236 0 l 101 0 l 101 979 l 236 986 l 236 464 b 451 681 258 582 315 681 b 660 417 613 681 660 576 l 660 0 "},"ħ":{"ha":750,"x_min":0,"x_max":0,"o":"m 525 0 l 525 354 b 393 568 525 503 493 568 b 236 275 286 568 239 458 l 236 0 l 101 0 l 101 799 l 18 799 l 18 864 l 101 864 l 101 979 l 236 986 l 236 864 l 450 864 l 450 799 l 236 799 l 236 464 b 451 681 258 582 315 681 b 660 417 613 681 660 576 l 660 0 "},"ì":{"ha":347,"x_min":0,"x_max":0,"o":"m 97 1064 l 286 811 l 231 765 l 13 986 m 240 667 l 240 0 l 106 0 l 106 660 "},"í":{"ha":347,"x_min":0,"x_max":0,"o":"m 251 1064 l 336 986 l 118 765 l 63 811 m 240 667 l 240 0 l 106 0 l 106 660 "},"î":{"ha":347,"x_min":0,"x_max":0,"o":"m 140 1046 l 214 1046 l 403 808 l 356 764 l 178 939 l -1 764 l -49 808 m 240 667 l 240 0 l 106 0 l 106 660 "},"ĩ":{"ha":347,"x_min":0,"x_max":0,"o":"m -11 807 b 86 1018 -51 929 -11 1018 b 279 904 203 1018 203 904 b 329 1019 335 904 344 960 l 365 1019 b 268 808 404 900 365 808 b 75 922 160 808 161 922 b 24 807 19 922 8 867 l -11 807 m 240 667 l 240 0 l 106 0 l 106 660 "},"ï":{"ha":347,"x_min":0,"x_max":0,"o":"m -8 986 l 121 986 l 121 856 l -8 856 m 233 986 l 363 986 l 363 856 l 233 856 m 240 667 l 240 0 l 106 0 l 106 660 "},"ī":{"ha":347,"x_min":0,"x_max":0,"o":"m 368 986 l 368 900 l -15 900 l -15 986 m 240 667 l 240 0 l 106 0 l 106 660 "},"ĭ":{"ha":347,"x_min":0,"x_max":0,"o":"m 176 800 b -24 1033 17 800 -31 929 l 28 1033 b 176 900 33 985 57 900 b 326 1033 297 900 319 985 l 376 1033 b 176 800 383 929 336 800 m 240 667 l 240 0 l 106 0 l 106 660 "},"į":{"ha":347,"x_min":0,"x_max":0,"o":"m 103 986 l 251 986 l 251 850 l 103 850 m 68 -171 b 167 0 68 -101 118 -43 l 106 0 l 106 660 l 240 667 l 240 0 b 153 -156 190 -18 153 -90 b 207 -225 153 -199 168 -225 b 257 -160 242 -225 257 -194 l 289 -160 b 181 -287 293 -231 264 -287 b 68 -171 106 -287 68 -244 "},"ı":{"ha":347,"x_min":0,"x_max":0,"o":"m 240 667 l 240 0 l 106 0 l 106 660 "},"ĳ":{"ha":724,"x_min":0,"x_max":0,"o":"m 103 986 l 251 986 l 251 850 l 103 850 m 483 986 l 632 986 l 632 850 l 483 850 m 240 667 l 240 0 l 106 0 l 106 660 m 356 -185 b 419 -254 361 -228 376 -254 b 483 -118 463 -254 483 -211 l 483 660 l 618 667 l 618 -67 b 449 -347 618 -256 572 -347 b 314 -185 335 -347 314 -262 "},"ĵ":{"ha":372,"x_min":0,"x_max":0,"o":"m 158 1046 l 232 1046 l 421 808 l 374 764 l 196 939 l 17 764 l -31 808 m 4 -185 b 68 -254 10 -228 25 -254 b 132 -118 111 -254 132 -211 l 132 660 l 267 667 l 267 -67 b 97 -347 267 -256 221 -347 b -37 -185 -17 -347 -37 -262 "},"ȷ":{"ha":372,"x_min":0,"x_max":0,"o":"m 4 -185 b 68 -254 10 -228 25 -254 b 132 -118 111 -254 132 -211 l 132 660 l 267 667 l 267 -67 b 97 -347 267 -256 221 -347 b -37 -185 -17 -347 -37 -262 "},"ķ":{"ha":690,"x_min":0,"x_max":0,"o":"m 236 986 l 236 397 l 506 660 l 638 660 l 406 438 l 672 0 l 515 0 l 313 347 l 236 275 l 236 0 l 101 0 l 101 979 m 325 -76 l 433 -76 l 329 -318 l 261 -303 "},"ĺ":{"ha":343,"x_min":0,"x_max":0,"o":"m 263 1215 l 338 1122 l 69 1014 l 33 1051 m 239 986 l 239 0 l 104 0 l 104 979 "},"ľ":{"ha":476,"x_min":0,"x_max":0,"o":"m 239 986 l 239 0 l 104 0 l 104 979 m 394 986 l 506 986 l 419 710 l 342 710 "},"ļ":{"ha":343,"x_min":0,"x_max":0,"o":"m 239 986 l 239 0 l 104 0 l 104 979 m 128 -76 l 236 -76 l 132 -318 l 64 -303 "},"ł":{"ha":343,"x_min":0,"x_max":0,"o":"m 11 375 l 104 458 l 104 979 l 239 986 l 239 578 l 332 661 l 332 551 l 239 468 l 239 0 l 104 0 l 104 349 l 11 265 "},"ŀ":{"ha":460,"x_min":0,"x_max":0,"o":"m 239 986 l 239 0 l 104 0 l 104 979 m 326 560 l 460 560 l 460 435 l 326 435 "},"ń":{"ha":746,"x_min":0,"x_max":0,"o":"m 467 1064 l 551 986 l 333 765 l 278 811 m 521 0 l 521 354 b 390 568 521 503 489 568 b 232 275 283 568 232 458 l 232 0 l 97 0 l 97 660 l 214 667 l 228 467 l 228 460 b 447 681 247 583 304 681 b 656 417 610 681 656 576 l 656 0 "},"ň":{"ha":746,"x_min":0,"x_max":0,"o":"m 218 1053 l 393 878 l 569 1053 l 619 1014 l 431 774 l 357 774 l 168 1014 m 521 0 l 521 354 b 390 568 521 503 489 568 b 232 275 283 568 232 458 l 232 0 l 97 0 l 97 660 l 214 667 l 228 467 l 228 460 b 447 681 247 583 304 681 b 656 417 610 681 656 576 l 656 0 "},"ñ":{"ha":746,"x_min":0,"x_max":0,"o":"m 169 807 b 267 1018 129 929 169 1018 b 460 904 383 1018 383 904 b 510 1019 515 904 525 960 l 546 1019 b 449 808 585 900 546 808 b 256 922 340 808 342 922 b 204 807 200 922 189 867 l 169 807 m 521 0 l 521 354 b 390 568 521 503 489 568 b 232 275 283 568 232 458 l 232 0 l 97 0 l 97 660 l 214 667 l 228 467 l 228 460 b 447 681 247 583 304 681 b 656 417 610 681 656 576 l 656 0 "},"ņ":{"ha":746,"x_min":0,"x_max":0,"o":"m 521 0 l 521 354 b 390 568 521 503 489 568 b 232 275 283 568 232 458 l 232 0 l 97 0 l 97 660 l 214 667 l 228 467 l 228 460 b 447 681 247 583 304 681 b 656 417 610 681 656 576 l 656 0 m 328 -76 l 436 -76 l 332 -318 l 264 -303 "},"ò":{"ha":717,"x_min":0,"x_max":0,"o":"m 278 1064 l 467 811 l 411 765 l 193 986 m 56 332 b 360 681 56 547 181 681 b 661 329 529 681 661 560 b 360 -14 661 113 547 -14 b 56 332 183 -14 56 104 m 526 335 b 358 575 526 479 467 575 b 190 335 256 575 190 485 b 360 82 190 168 256 82 b 526 335 458 82 526 164 "},"ó":{"ha":717,"x_min":0,"x_max":0,"o":"m 440 1064 l 525 986 l 307 765 l 251 811 m 56 332 b 360 681 56 547 181 681 b 661 329 529 681 661 560 b 360 -14 661 113 547 -14 b 56 332 183 -14 56 104 m 526 335 b 358 575 526 479 467 575 b 190 335 256 575 190 485 b 360 82 190 168 256 82 b 526 335 458 82 526 164 "},"ô":{"ha":717,"x_min":0,"x_max":0,"o":"m 325 1046 l 399 1046 l 588 808 l 540 764 l 363 939 l 183 764 l 136 808 m 56 332 b 360 681 56 547 181 681 b 661 329 529 681 661 560 b 360 -14 661 113 547 -14 b 56 332 183 -14 56 104 m 526 335 b 358 575 526 479 467 575 b 190 335 256 575 190 485 b 360 82 190 168 256 82 b 526 335 458 82 526 164 "},"õ":{"ha":717,"x_min":0,"x_max":0,"o":"m 165 807 b 263 1018 125 929 165 1018 b 456 904 379 1018 379 904 b 506 1019 511 904 521 960 l 542 1019 b 444 808 581 900 542 808 b 251 922 336 808 338 922 b 200 807 196 922 185 867 l 165 807 m 56 332 b 360 681 56 547 181 681 b 661 329 529 681 661 560 b 360 -14 661 113 547 -14 b 56 332 183 -14 56 104 m 526 335 b 358 575 526 479 467 575 b 190 335 256 575 190 485 b 360 82 190 168 256 82 b 526 335 458 82 526 164 "},"ö":{"ha":717,"x_min":0,"x_max":0,"o":"m 178 986 l 307 986 l 307 856 l 178 856 m 419 986 l 549 986 l 549 856 l 419 856 m 56 332 b 360 681 56 547 181 681 b 661 329 529 681 661 560 b 360 -14 661 113 547 -14 b 56 332 183 -14 56 104 m 526 335 b 358 575 526 479 467 575 b 190 335 256 575 190 485 b 360 82 190 168 256 82 b 526 335 458 82 526 164 "},"ō":{"ha":717,"x_min":0,"x_max":0,"o":"m 554 986 l 554 900 l 171 900 l 171 986 m 56 332 b 360 681 56 547 181 681 b 661 329 529 681 661 560 b 360 -14 661 113 547 -14 b 56 332 183 -14 56 104 m 526 335 b 358 575 526 479 467 575 b 190 335 256 575 190 485 b 360 82 190 168 256 82 b 526 335 458 82 526 164 "},"ŏ":{"ha":717,"x_min":0,"x_max":0,"o":"m 363 800 b 163 1033 203 800 156 929 l 214 1033 b 363 900 219 985 243 900 b 513 1033 483 900 506 985 l 563 1033 b 363 800 569 929 522 800 m 56 332 b 360 681 56 547 181 681 b 661 329 529 681 661 560 b 360 -14 661 113 547 -14 b 56 332 183 -14 56 104 m 526 335 b 358 575 526 479 467 575 b 190 335 256 575 190 485 b 360 82 190 168 256 82 b 526 335 458 82 526 164 "},"ő":{"ha":717,"x_min":0,"x_max":0,"o":"m 300 1060 l 389 1024 l 251 769 l 185 801 m 544 1056 l 629 1014 l 488 769 l 421 801 m 56 332 b 360 681 56 547 181 681 b 661 329 529 681 661 560 b 360 -14 661 113 547 -14 b 56 332 183 -14 56 104 m 526 335 b 358 575 526 479 467 575 b 190 335 256 575 190 485 b 360 82 190 168 256 82 b 526 335 458 82 526 164 "},"ø":{"ha":721,"x_min":0,"x_max":0,"o":"m 56 332 b 360 681 56 547 181 681 b 543 621 429 681 492 660 l 583 674 l 665 674 l 589 574 b 661 329 635 515 661 433 b 360 -14 661 113 547 -14 b 181 39 292 -14 231 4 l 143 -11 l 60 -11 l 132 83 b 56 332 83 142 56 225 m 190 335 b 213 189 190 276 199 228 l 471 525 b 358 575 443 557 406 575 b 190 335 256 575 190 485 m 526 335 b 506 464 526 385 519 428 l 250 129 b 360 82 278 97 315 82 b 526 335 458 82 526 164 "},"ǿ":{"ha":721,"x_min":0,"x_max":0,"o":"m 439 1064 l 524 986 l 306 765 l 250 811 m 56 332 b 360 681 56 547 181 681 b 543 621 429 681 492 660 l 583 674 l 665 674 l 589 574 b 661 329 635 515 661 433 b 360 -14 661 113 547 -14 b 181 39 292 -14 231 4 l 143 -11 l 60 -11 l 132 83 b 56 332 83 142 56 225 m 190 335 b 213 189 190 276 199 228 l 471 525 b 358 575 443 557 406 575 b 190 335 256 575 190 485 m 526 335 b 506 464 526 385 519 428 l 250 129 b 360 82 278 97 315 82 b 526 335 458 82 526 164 "},"œ":{"ha":1129,"x_min":0,"x_max":0,"o":"m 56 332 b 360 681 56 547 181 681 b 597 539 467 681 550 632 b 813 681 643 626 717 681 b 1051 457 990 681 1051 567 b 1043 349 1051 424 1046 367 l 654 349 l 654 347 l 654 324 b 851 81 654 171 715 81 b 1032 235 963 81 1028 144 l 1074 235 b 818 -14 1074 93 979 -14 b 589 107 708 -14 632 26 b 360 -14 543 31 467 -14 b 56 332 183 -14 56 104 m 526 335 b 358 575 526 479 467 575 b 190 335 256 575 190 485 b 360 82 190 168 256 82 b 526 335 458 82 526 164 m 821 575 b 660 414 738 575 679 518 l 940 414 b 943 454 942 418 943 436 b 821 575 943 504 928 575 "},"ŕ":{"ha":568,"x_min":0,"x_max":0,"o":"m 406 1064 l 490 986 l 272 765 l 217 811 m 211 667 l 222 465 b 406 681 242 581 289 681 b 546 510 514 681 546 576 b 536 443 546 481 542 463 l 479 443 b 471 506 479 464 478 486 b 385 567 460 540 435 567 b 232 246 268 567 232 443 l 232 0 l 97 0 l 97 660 "},"ř":{"ha":568,"x_min":0,"x_max":0,"o":"m 142 1053 l 317 878 l 493 1053 l 543 1014 l 354 774 l 281 774 l 92 1014 m 211 667 l 222 465 b 406 681 242 581 289 681 b 546 510 514 681 546 576 b 536 443 546 481 542 463 l 479 443 b 471 506 479 464 478 486 b 385 567 460 540 435 567 b 232 246 268 567 232 443 l 232 0 l 97 0 l 97 660 "},"ŗ":{"ha":568,"x_min":0,"x_max":0,"o":"m 211 667 l 222 465 b 406 681 242 581 289 681 b 546 510 514 681 546 576 b 536 443 546 481 542 463 l 479 443 b 471 506 479 464 478 486 b 385 567 460 540 435 567 b 232 246 268 567 232 443 l 232 0 l 97 0 l 97 660 m 119 -76 l 228 -76 l 124 -318 l 56 -303 "},"ś":{"ha":613,"x_min":0,"x_max":0,"o":"m 399 1064 l 483 986 l 265 765 l 210 811 m 111 214 b 286 61 128 117 186 61 b 425 160 360 61 425 85 b 283 276 425 222 389 250 b 75 481 149 311 75 364 b 318 681 75 603 174 681 b 535 483 458 681 549 607 l 474 483 b 332 600 469 544 422 600 b 206 504 258 600 206 572 b 365 392 206 439 251 422 b 560 189 507 354 560 290 b 307 -14 560 64 458 -14 b 53 214 136 -14 53 71 "},"ŝ":{"ha":613,"x_min":0,"x_max":0,"o":"m 276 1046 l 350 1046 l 539 808 l 492 764 l 314 939 l 135 764 l 88 808 m 111 214 b 286 61 128 117 186 61 b 425 160 360 61 425 85 b 283 276 425 222 389 250 b 75 481 149 311 75 364 b 318 681 75 603 174 681 b 535 483 458 681 549 607 l 474 483 b 332 600 469 544 422 600 b 206 504 258 600 206 572 b 365 392 206 439 251 422 b 560 189 507 354 560 290 b 307 -14 560 64 458 -14 b 53 214 136 -14 53 71 "},"š":{"ha":613,"x_min":0,"x_max":0,"o":"m 133 1053 l 308 878 l 485 1053 l 535 1014 l 346 774 l 272 774 l 83 1014 m 111 214 b 286 61 128 117 186 61 b 425 160 360 61 425 85 b 283 276 425 222 389 250 b 75 481 149 311 75 364 b 318 681 75 603 174 681 b 535 483 458 681 549 607 l 474 483 b 332 600 469 544 422 600 b 206 504 258 600 206 572 b 365 392 206 439 251 422 b 560 189 507 354 560 290 b 307 -14 560 64 458 -14 b 53 214 136 -14 53 71 "},"ş":{"ha":613,"x_min":0,"x_max":0,"o":"m 111 214 b 286 61 128 117 186 61 b 425 160 360 61 425 85 b 283 276 425 222 389 250 b 75 481 149 311 75 364 b 318 681 75 603 174 681 b 535 483 458 681 549 607 l 474 483 b 332 600 469 544 422 600 b 206 504 258 600 206 572 b 365 392 206 439 251 422 b 560 189 507 354 560 290 b 322 -14 560 68 465 -8 l 314 -64 b 447 -165 390 -53 447 -86 b 332 -276 447 -239 399 -276 b 229 -160 249 -276 222 -224 l 263 -160 b 313 -219 261 -200 275 -219 b 360 -165 340 -219 360 -200 b 279 -110 360 -115 328 -100 l 253 -96 l 275 -12 b 53 214 126 -3 53 81 "},"ș":{"ha":613,"x_min":0,"x_max":0,"o":"m 111 214 b 286 61 128 117 186 61 b 425 160 360 61 425 85 b 283 276 425 222 389 250 b 75 481 149 311 75 364 b 318 681 75 603 174 681 b 535 483 458 681 549 607 l 474 483 b 332 600 469 544 422 600 b 206 504 258 600 206 572 b 365 392 206 439 251 422 b 560 189 507 354 560 290 b 307 -14 560 64 458 -14 b 53 214 136 -14 53 71 m 258 -76 l 367 -76 l 263 -318 l 194 -303 "},"ß":{"ha":819,"x_min":0,"x_max":0,"o":"m 104 639 b 421 986 104 842 193 986 b 683 788 589 986 683 897 b 600 636 683 710 646 672 b 517 526 560 604 517 578 b 626 419 517 467 565 458 b 768 208 692 383 768 325 b 531 -15 768 71 667 -15 b 326 183 401 -15 326 49 l 376 183 b 504 56 386 106 424 56 b 625 172 568 56 625 97 b 503 321 625 258 567 281 b 386 475 433 368 386 407 b 492 633 386 546 443 590 b 567 769 529 667 567 706 b 426 894 567 842 511 894 b 239 613 300 894 239 806 l 239 0 l 104 0 l 104 639 "},"ť":{"ha":488,"x_min":0,"x_max":0,"o":"m 440 986 l 551 986 l 465 731 l 389 731 m 114 594 l 7 594 l 7 646 l 114 660 l 114 817 l 249 826 l 249 660 l 428 660 l 428 594 l 249 594 l 249 182 b 331 78 249 121 265 78 b 408 144 385 78 408 103 l 443 144 b 290 -14 443 44 400 -14 b 114 201 167 -14 114 51 "},"ț":{"ha":481,"x_min":0,"x_max":0,"o":"m 114 594 l 7 594 l 7 646 l 114 660 l 114 817 l 249 826 l 249 660 l 428 660 l 428 594 l 249 594 l 249 182 b 331 78 249 121 265 78 b 408 144 385 78 408 103 l 443 144 b 290 -14 443 44 400 -14 b 114 201 167 -14 114 51 m 240 -76 l 349 -76 l 244 -318 l 176 -303 "},"ţ":{"ha":481,"x_min":0,"x_max":0,"o":"m 114 594 l 7 594 l 7 646 l 114 660 l 114 817 l 249 826 l 249 660 l 428 660 l 428 594 l 249 594 l 249 182 b 331 78 249 121 265 78 b 408 144 385 78 408 103 l 443 144 b 290 -14 443 44 400 -14 b 281 -14 286 -14 283 -14 l 272 -64 b 406 -165 349 -53 406 -86 b 290 -276 406 -239 357 -276 b 188 -160 207 -276 181 -224 l 221 -160 b 271 -219 219 -200 233 -219 b 318 -165 299 -219 318 -200 b 238 -110 318 -115 286 -100 l 211 -96 l 235 -8 b 114 201 151 10 114 76 "},"ŧ":{"ha":488,"x_min":0,"x_max":0,"o":"m 118 331 l 21 331 l 21 396 l 118 396 l 118 594 l 11 594 l 11 646 l 118 660 l 118 817 l 253 826 l 253 660 l 432 660 l 432 594 l 253 594 l 253 396 l 422 396 l 422 331 l 253 331 l 253 182 b 335 78 253 121 269 78 b 413 144 389 78 413 103 l 447 144 b 294 -14 447 44 404 -14 b 118 201 171 -14 118 51 "},"ù":{"ha":746,"x_min":0,"x_max":0,"o":"m 306 1064 l 494 811 l 439 765 l 221 986 m 517 196 b 299 -14 494 81 436 -14 b 90 250 136 -14 90 90 l 90 660 l 225 667 l 225 313 b 357 100 225 164 257 100 b 514 393 464 100 514 208 l 514 660 l 649 667 l 649 0 l 525 0 l 518 181 "},"ú":{"ha":746,"x_min":0,"x_max":0,"o":"m 463 1064 l 547 986 l 329 765 l 274 811 m 517 196 b 299 -14 494 81 436 -14 b 90 250 136 -14 90 90 l 90 660 l 225 667 l 225 313 b 357 100 225 164 257 100 b 514 393 464 100 514 208 l 514 660 l 649 667 l 649 0 l 525 0 l 518 181 "},"û":{"ha":746,"x_min":0,"x_max":0,"o":"m 342 1046 l 415 1046 l 604 808 l 557 764 l 379 939 l 200 764 l 153 808 m 517 196 b 299 -14 494 81 436 -14 b 90 250 136 -14 90 90 l 90 660 l 225 667 l 225 313 b 357 100 225 164 257 100 b 514 393 464 100 514 208 l 514 660 l 649 667 l 649 0 l 525 0 l 518 181 "},"ũ":{"ha":746,"x_min":0,"x_max":0,"o":"m 190 807 b 288 1018 150 929 190 1018 b 481 904 404 1018 404 904 b 531 1019 536 904 546 960 l 567 1019 b 469 808 606 900 567 808 b 276 922 361 808 363 922 b 225 807 221 922 210 867 l 190 807 m 517 196 b 299 -14 494 81 436 -14 b 90 250 136 -14 90 90 l 90 660 l 225 667 l 225 313 b 357 100 225 164 257 100 b 514 393 464 100 514 208 l 514 660 l 649 667 l 649 0 l 525 0 l 518 181 "},"ü":{"ha":746,"x_min":0,"x_max":0,"o":"m 197 986 l 326 986 l 326 856 l 197 856 m 439 986 l 568 986 l 568 856 l 439 856 m 517 196 b 299 -14 494 81 436 -14 b 90 250 136 -14 90 90 l 90 660 l 225 667 l 225 313 b 357 100 225 164 257 100 b 514 393 464 100 514 208 l 514 660 l 649 667 l 649 0 l 525 0 l 518 181 "},"ū":{"ha":746,"x_min":0,"x_max":0,"o":"m 567 986 l 567 900 l 183 900 l 183 986 m 517 196 b 299 -14 494 81 436 -14 b 90 250 136 -14 90 90 l 90 660 l 225 667 l 225 313 b 357 100 225 164 257 100 b 514 393 464 100 514 208 l 514 660 l 649 667 l 649 0 l 525 0 l 518 181 "},"ŭ":{"ha":746,"x_min":0,"x_max":0,"o":"m 382 800 b 182 1033 222 800 175 929 l 233 1033 b 382 900 239 985 263 900 b 532 1033 503 900 525 985 l 582 1033 b 382 800 589 929 542 800 m 517 196 b 299 -14 494 81 436 -14 b 90 250 136 -14 90 90 l 90 660 l 225 667 l 225 313 b 357 100 225 164 257 100 b 514 393 464 100 514 208 l 514 660 l 649 667 l 649 0 l 525 0 l 518 181 "},"ů":{"ha":746,"x_min":0,"x_max":0,"o":"m 228 947 b 378 1092 228 1029 290 1092 b 531 947 471 1092 531 1029 b 378 803 531 867 471 803 b 228 947 289 803 228 867 m 456 938 b 379 1018 456 983 424 1018 b 301 938 333 1018 301 983 b 379 860 301 893 333 860 b 456 938 424 860 456 893 m 517 196 b 299 -14 494 81 436 -14 b 90 250 136 -14 90 90 l 90 660 l 225 667 l 225 313 b 357 100 225 164 257 100 b 514 393 464 100 514 208 l 514 660 l 649 667 l 649 0 l 525 0 l 518 181 "},"ű":{"ha":746,"x_min":0,"x_max":0,"o":"m 321 1060 l 410 1024 l 272 769 l 206 801 m 565 1056 l 650 1014 l 508 769 l 442 801 m 517 196 b 299 -14 494 81 436 -14 b 90 250 136 -14 90 90 l 90 660 l 225 667 l 225 313 b 357 100 225 164 257 100 b 514 393 464 100 514 208 l 514 660 l 649 667 l 649 0 l 525 0 l 518 181 "},"ų":{"ha":746,"x_min":0,"x_max":0,"o":"m 435 -185 b 563 0 435 -106 493 -46 l 525 0 l 518 181 l 517 196 b 299 -14 494 81 436 -14 b 90 250 136 -14 90 90 l 90 660 l 225 667 l 225 313 b 357 100 225 164 257 100 b 514 393 464 100 514 208 l 514 660 l 649 667 l 649 0 b 519 -169 581 -22 519 -87 b 568 -225 519 -196 529 -225 b 617 -160 603 -225 617 -194 l 649 -160 b 542 -287 653 -231 625 -287 b 435 -185 467 -287 435 -242 "},"ẁ":{"ha":979,"x_min":0,"x_max":0,"o":"m 424 1064 l 613 811 l 557 765 l 339 986 m 158 660 l 306 169 l 460 619 l 553 619 l 710 169 l 856 660 l 965 660 l 765 0 l 642 0 l 485 435 l 328 0 l 217 0 l 14 660 "},"ẃ":{"ha":979,"x_min":0,"x_max":0,"o":"m 644 1064 l 729 986 l 511 765 l 456 811 m 158 660 l 306 169 l 460 619 l 553 619 l 710 169 l 856 660 l 965 660 l 765 0 l 642 0 l 485 435 l 328 0 l 217 0 l 14 660 "},"ŵ":{"ha":979,"x_min":0,"x_max":0,"o":"m 482 1046 l 556 1046 l 744 808 l 697 764 l 519 939 l 340 764 l 293 808 m 158 660 l 306 169 l 460 619 l 553 619 l 710 169 l 856 660 l 965 660 l 765 0 l 642 0 l 485 435 l 328 0 l 217 0 l 14 660 "},"ẅ":{"ha":979,"x_min":0,"x_max":0,"o":"m 339 986 l 468 986 l 468 856 l 339 856 m 581 986 l 710 986 l 710 856 l 581 856 m 158 660 l 306 169 l 460 619 l 553 619 l 710 169 l 856 660 l 965 660 l 765 0 l 642 0 l 485 435 l 328 0 l 217 0 l 14 660 "},"ỳ":{"ha":644,"x_min":0,"x_max":0,"o":"m 269 1064 l 458 811 l 403 765 l 185 986 m 58 -193 b 131 -256 58 -226 78 -256 b 238 -133 183 -256 207 -218 l 282 -15 l 11 660 l 156 660 l 351 176 l 514 660 l 633 660 l 314 -194 b 149 -347 269 -310 208 -347 b 24 -193 15 -347 22 -235 "},"ý":{"ha":644,"x_min":0,"x_max":0,"o":"m 431 1064 l 515 986 l 297 765 l 242 811 m 58 -193 b 131 -256 58 -226 78 -256 b 238 -133 183 -256 207 -218 l 282 -15 l 11 660 l 156 660 l 351 176 l 514 660 l 633 660 l 314 -194 b 149 -347 269 -310 208 -347 b 24 -193 15 -347 22 -235 "},"ŷ":{"ha":644,"x_min":0,"x_max":0,"o":"m 306 1046 l 379 1046 l 568 808 l 521 764 l 343 939 l 164 764 l 117 808 m 58 -193 b 131 -256 58 -226 78 -256 b 238 -133 183 -256 207 -218 l 282 -15 l 11 660 l 156 660 l 351 176 l 514 660 l 633 660 l 314 -194 b 149 -347 269 -310 208 -347 b 24 -193 15 -347 22 -235 "},"ÿ":{"ha":644,"x_min":0,"x_max":0,"o":"m 157 986 l 286 986 l 286 856 l 157 856 m 399 986 l 528 986 l 528 856 l 399 856 m 58 -193 b 131 -256 58 -226 78 -256 b 238 -133 183 -256 207 -218 l 282 -15 l 11 660 l 156 660 l 351 176 l 514 660 l 633 660 l 314 -194 b 149 -347 269 -310 208 -347 b 24 -193 15 -347 22 -235 "},"ź":{"ha":596,"x_min":0,"x_max":0,"o":"m 392 1064 l 476 986 l 258 765 l 203 811 m 396 563 l 71 563 l 71 660 l 543 660 l 543 569 l 210 97 l 547 97 l 547 0 l 49 0 l 49 74 "},"ž":{"ha":596,"x_min":0,"x_max":0,"o":"m 143 1053 l 318 878 l 494 1053 l 544 1014 l 356 774 l 282 774 l 93 1014 m 396 563 l 71 563 l 71 660 l 543 660 l 543 569 l 210 97 l 547 97 l 547 0 l 49 0 l 49 74 "},"ż":{"ha":596,"x_min":0,"x_max":0,"o":"m 240 986 l 389 986 l 389 850 l 240 850 m 396 563 l 71 563 l 71 660 l 543 660 l 543 569 l 210 97 l 547 97 l 547 0 l 49 0 l 49 74 "},"ə":{"ha":667,"x_min":0,"x_max":0,"o":"m 611 347 b 317 -21 611 142 500 -21 b 78 203 139 -21 78 93 b 86 314 78 236 83 296 l 475 314 l 475 336 b 281 579 475 489 410 579 b 104 429 169 579 114 518 l 56 429 b 311 674 56 579 150 674 b 611 347 497 674 611 563 m 308 85 b 469 243 394 85 451 144 l 189 243 b 186 206 188 239 186 224 b 308 85 186 147 208 85 "},"ŋ":{"ha":746,"x_min":0,"x_max":0,"o":"m 486 -285 b 356 -128 374 -285 356 -200 l 390 -128 b 458 -193 392 -169 410 -193 b 531 -60 508 -193 531 -153 b 521 186 531 -19 521 111 l 521 354 b 390 568 521 503 489 568 b 232 275 283 568 232 458 l 232 0 l 97 0 l 97 660 l 214 667 l 226 461 b 447 681 246 585 306 681 b 656 417 610 681 656 576 l 656 -4 b 486 -285 656 -193 611 -285 "},"ð":{"ha":721,"x_min":0,"x_max":0,"o":"m 361 -15 b 56 322 161 -15 56 131 b 310 660 56 524 150 660 b 528 497 417 660 489 606 l 532 500 b 350 814 513 636 444 739 l 274 738 l 192 738 l 303 849 b 146 926 254 879 201 906 l 225 986 b 369 914 276 967 324 943 l 439 983 l 519 983 l 417 881 b 665 360 565 769 665 600 b 361 -15 665 110 542 -15 m 364 81 b 529 317 461 81 529 169 b 358 557 529 450 475 557 b 190 317 238 557 190 446 b 364 81 190 199 235 81 "},"þ":{"ha":760,"x_min":0,"x_max":0,"o":"m 232 986 l 232 515 b 442 679 263 614 328 679 b 704 336 572 679 704 575 b 442 -15 704 121 594 -15 b 232 156 344 -15 268 39 l 232 -335 l 97 -335 l 97 979 m 567 319 b 399 574 567 499 485 574 b 232 317 299 574 232 489 b 399 81 232 167 313 81 b 567 319 503 81 567 175 "},"`":{"ha":694,"x_min":0,"x_max":0,"o":"m 292 1064 l 481 811 l 425 765 l 207 986 "},"´":{"ha":694,"x_min":0,"x_max":0,"o":"m 399 1064 l 483 986 l 265 765 l 210 811 "},"ˆ":{"ha":694,"x_min":0,"x_max":0,"o":"m 311 1046 l 385 1046 l 574 808 l 526 764 l 349 939 l 169 764 l 122 808 "},"ˇ":{"ha":694,"x_min":0,"x_max":0,"o":"m 185 1053 l 360 878 l 536 1053 l 586 1014 l 397 774 l 324 774 l 135 1014 "},"˜":{"ha":694,"x_min":0,"x_max":0,"o":"m 160 807 b 257 1018 119 929 160 1018 b 450 904 374 1018 374 904 b 500 1019 506 904 515 960 l 536 1019 b 439 808 575 900 536 808 b 246 922 331 808 332 922 b 194 807 190 922 179 867 l 160 807 "},"¨":{"ha":694,"x_min":0,"x_max":0,"o":"m 164 986 l 293 986 l 293 856 l 164 856 m 406 986 l 535 986 l 535 856 l 406 856 "},"¯":{"ha":694,"x_min":0,"x_max":0,"o":"m 539 986 l 539 900 l 156 900 l 156 986 "},"˘":{"ha":694,"x_min":0,"x_max":0,"o":"m 347 800 b 147 1033 188 800 140 929 l 199 1033 b 347 900 204 985 228 900 b 497 1033 468 900 490 985 l 547 1033 b 347 800 554 929 507 800 "},"˚":{"ha":694,"x_min":0,"x_max":0,"o":"m 196 947 b 346 1092 196 1029 258 1092 b 499 947 439 1092 499 1029 b 346 803 499 867 439 803 b 196 947 257 803 196 867 m 424 938 b 347 1018 424 983 392 1018 b 269 938 301 1018 269 983 b 347 860 269 893 301 860 b 424 938 392 860 424 893 "},"˝":{"ha":694,"x_min":0,"x_max":0,"o":"m 251 1060 l 340 1024 l 203 769 l 136 801 m 496 1056 l 581 1014 l 439 769 l 372 801 "},"˙":{"ha":694,"x_min":0,"x_max":0,"o":"m 274 986 l 422 986 l 422 850 l 274 850 "},"¸":{"ha":694,"x_min":0,"x_max":0,"o":"m 290 -160 b 340 -219 289 -200 303 -219 b 388 -165 368 -219 388 -200 b 307 -110 388 -115 356 -100 l 281 -96 l 308 6 l 351 0 l 342 -64 b 475 -165 418 -53 475 -86 b 360 -276 475 -239 426 -276 b 257 -160 276 -276 250 -224 "},"˛":{"ha":694,"x_min":0,"x_max":0,"o":"m 379 -171 b 565 103 379 -56 482 19 l 581 97 b 475 -158 522 22 475 -76 b 526 -221 475 -197 488 -221 b 572 -160 557 -221 572 -194 l 610 -160 b 501 -287 613 -231 583 -287 b 379 -171 426 -287 379 -257 "},"":{"ha":694,"x_min":0,"x_max":0,"o":"m 269 -76 l 378 -76 l 274 -318 l 206 -303 "},",":{"ha":353,"x_min":0,"x_max":0,"o":"m 72 -190 b 176 -10 110 -164 168 -85 b 99 65 128 -10 99 17 b 175 143 99 110 132 143 b 257 57 229 143 257 106 b 101 -231 257 -81 157 -200 l 72 -190 "},";":{"ha":354,"x_min":0,"x_max":0,"o":"m 97 576 b 179 654 97 615 128 654 b 256 576 226 654 256 615 b 179 496 256 535 226 496 b 97 576 128 496 97 535 m 72 -189 b 176 -8 110 -162 168 -83 b 99 67 128 -8 99 18 b 175 143 99 111 132 143 b 257 58 229 143 257 107 b 101 -229 257 -81 157 -199 l 72 -189 "},":":{"ha":353,"x_min":0,"x_max":0,"o":"m 97 578 b 179 656 97 617 128 656 b 256 578 226 656 256 617 b 179 497 256 536 226 497 b 97 578 128 497 97 536 m 97 68 b 179 144 97 106 128 144 b 256 68 226 144 256 106 b 179 -14 256 25 226 -14 b 97 68 128 -14 97 25 "},".":{"ha":353,"x_min":0,"x_max":0,"o":"m 97 67 b 178 144 97 107 128 144 b 256 67 225 144 256 107 b 179 -14 256 21 226 -14 b 97 67 128 -14 97 21 "},"…":{"ha":936,"x_min":0,"x_max":0,"o":"m 97 67 b 178 144 97 107 128 144 b 256 67 225 144 256 107 b 179 -14 256 21 226 -14 b 97 67 128 -14 97 21 m 389 67 b 469 144 389 107 419 144 b 547 67 517 144 547 107 b 471 -14 547 21 518 -14 b 389 67 419 -14 389 21 m 681 67 b 761 144 681 107 711 144 b 839 67 808 144 839 107 b 763 -14 839 21 810 -14 b 681 67 711 -14 681 21 "},"-":{"ha":510,"x_min":0,"x_max":0,"o":"m 426 476 l 426 369 l 83 369 l 83 476 "},"!":{"ha":408,"x_min":0,"x_max":0,"o":"m 147 267 l 126 958 l 282 958 l 261 267 m 125 61 b 207 133 125 104 156 133 b 283 61 254 133 283 104 b 207 -14 283 15 254 -14 b 125 61 156 -14 125 15 "},"¡":{"ha":408,"x_min":0,"x_max":0,"o":"m 283 599 b 201 526 283 556 253 526 b 125 599 154 526 125 556 b 201 674 125 644 154 674 b 283 599 253 674 283 644 m 261 393 l 282 -299 l 126 -299 l 147 393 "},"?":{"ha":689,"x_min":0,"x_max":0,"o":"m 308 267 l 232 267 l 224 451 b 481 665 350 451 481 496 b 300 850 481 775 421 850 b 129 694 199 850 136 788 l 64 694 b 332 969 56 889 179 969 b 619 693 501 969 619 872 b 317 401 619 460 435 410 m 196 61 b 278 133 196 104 226 133 b 354 61 325 133 354 104 b 278 -14 354 15 325 -14 b 196 61 226 -14 196 15 "},"¿":{"ha":682,"x_min":0,"x_max":0,"o":"m 486 599 b 404 526 486 556 456 526 b 328 599 357 526 328 556 b 404 674 328 644 357 674 b 486 599 456 674 486 644 m 374 393 l 450 393 l 458 208 b 201 -6 332 208 201 164 b 382 -190 201 -115 261 -190 b 553 -35 483 -190 546 -128 l 618 -35 b 350 -310 626 -229 503 -310 b 63 -33 181 -310 63 -212 b 365 258 63 200 247 250 "},"‘":{"ha":267,"x_min":0,"x_max":0,"o":"m 217 944 b 124 786 183 919 133 854 b 200 713 172 786 200 761 b 124 635 200 668 168 635 b 42 721 71 635 42 672 b 186 986 42 844 128 951 l 217 944 "},"’":{"ha":267,"x_min":0,"x_max":0,"o":"m 50 676 b 143 835 83 703 133 767 b 67 910 94 835 67 861 b 143 986 67 954 99 986 b 225 901 196 986 225 950 b 81 635 225 778 139 671 l 50 676 "},"“":{"ha":524,"x_min":0,"x_max":0,"o":"m 217 944 b 124 786 183 919 133 854 b 200 713 172 786 200 761 b 124 635 200 668 168 635 b 42 721 71 635 42 672 b 186 986 42 844 128 951 l 217 944 m 474 944 b 381 786 440 919 390 854 b 457 713 429 786 457 761 b 381 635 457 668 425 635 b 299 721 328 635 299 672 b 443 986 299 844 385 951 l 474 944 "},"”":{"ha":524,"x_min":0,"x_max":0,"o":"m 50 676 b 143 835 83 703 133 767 b 67 910 94 835 67 861 b 143 986 67 954 99 986 b 225 901 196 986 225 950 b 81 635 225 778 139 671 l 50 676 m 307 676 b 400 835 340 703 390 767 b 324 910 351 835 324 861 b 400 986 324 954 356 986 b 482 901 453 986 482 950 b 338 635 482 778 396 671 l 307 676 "},"‚":{"ha":269,"x_min":0,"x_max":0,"o":"m 69 -190 b 174 -10 107 -164 165 -85 b 96 65 125 -10 96 17 b 172 143 96 110 129 143 b 254 57 226 143 254 106 b 99 -231 254 -81 154 -200 l 69 -190 "},"„":{"ha":526,"x_min":0,"x_max":0,"o":"m 69 -190 b 174 -10 107 -164 165 -85 b 96 65 125 -10 96 17 b 172 143 96 110 129 143 b 254 57 226 143 254 106 b 99 -231 254 -81 154 -200 l 69 -190 m 328 -190 b 432 -10 365 -164 424 -85 b 354 65 383 -10 354 17 b 431 143 354 110 388 143 b 513 57 485 143 513 106 b 357 -231 513 -81 413 -200 l 328 -190 "},"'":{"ha":207,"x_min":0,"x_max":0,"o":"m 56 746 l 56 986 l 151 986 l 151 746 "},"\"":{"ha":408,"x_min":0,"x_max":0,"o":"m 56 746 l 56 986 l 151 986 l 151 746 m 264 746 l 264 986 l 360 986 l 360 746 "},"‹":{"ha":400,"x_min":0,"x_max":0,"o":"m 176 346 l 338 103 l 217 103 l 63 335 l 63 357 l 217 589 l 338 589 "},"›":{"ha":400,"x_min":0,"x_max":0,"o":"m 183 103 l 63 103 l 224 346 l 63 589 l 183 589 l 338 357 l 338 335 "},"«":{"ha":676,"x_min":0,"x_max":0,"o":"m 176 346 l 338 103 l 217 103 l 63 335 l 63 357 l 217 589 l 338 589 m 453 346 l 614 103 l 493 103 l 339 335 l 339 357 l 493 589 l 614 589 "},"»":{"ha":676,"x_min":0,"x_max":0,"o":"m 460 103 l 339 103 l 500 346 l 339 589 l 460 589 l 614 357 l 614 335 m 183 103 l 63 103 l 224 346 l 63 589 l 183 589 l 338 357 l 338 335 "},"/":{"ha":615,"x_min":0,"x_max":0,"o":"m 21 -122 l 463 986 l 594 986 l 153 -122 "},"\\":{"ha":615,"x_min":0,"x_max":0,"o":"m 594 -122 l 463 -122 l 21 986 l 153 986 "},"|":{"ha":367,"x_min":0,"x_max":0,"o":"m 125 -212 l 125 1028 l 242 1028 l 242 -212 "},"¦":{"ha":367,"x_min":0,"x_max":0,"o":"m 125 579 l 125 1028 l 242 1028 l 242 579 m 125 -212 l 125 236 l 242 236 l 242 -212 "},"–":{"ha":786,"x_min":0,"x_max":0,"o":"m 743 476 l 743 369 l 42 369 l 42 476 "},"_":{"ha":738,"x_min":0,"x_max":0,"o":"m 736 -240 l 736 -347 l 0 -347 l 0 -240 "},"—":{"ha":1389,"x_min":0,"x_max":0,"o":"m 1347 456 l 1347 349 l 42 349 l 42 456 "},"•":{"ha":538,"x_min":0,"x_max":0,"o":"m 268 276 b 76 468 163 276 76 353 b 268 660 76 583 163 660 b 461 468 375 660 461 583 b 268 276 461 353 375 276 "},"·":{"ha":325,"x_min":0,"x_max":0,"o":"m 83 485 b 164 563 83 525 114 563 b 242 485 211 563 242 525 b 165 404 242 439 213 404 b 83 485 114 404 83 439 "},"(":{"ha":450,"x_min":0,"x_max":0,"o":"m 219 375 b 408 -208 219 36 372 -161 l 340 -268 b 69 375 249 -197 69 32 b 340 1025 69 717 247 954 l 408 965 b 219 375 372 918 219 714 "},")":{"ha":450,"x_min":0,"x_max":0,"o":"m 231 382 b 42 965 231 721 78 918 l 110 1025 b 381 382 201 954 381 725 b 110 -268 381 40 203 -197 l 42 -208 b 231 382 78 -161 231 43 "},"[":{"ha":449,"x_min":0,"x_max":0,"o":"m 407 -260 l 125 -260 l 125 1024 l 407 1024 l 407 951 l 260 951 l 260 -187 l 407 -187 "},"]":{"ha":449,"x_min":0,"x_max":0,"o":"m 324 -260 l 42 -260 l 42 -187 l 189 -187 l 189 951 l 42 951 l 42 1024 l 324 1024 "},"{":{"ha":501,"x_min":0,"x_max":0,"o":"m 331 210 b 317 -126 331 60 317 -4 b 410 -226 317 -206 353 -226 l 439 -226 l 439 -294 l 368 -294 b 178 -133 267 -294 178 -253 b 192 210 178 -35 192 67 b 104 335 192 310 104 335 l 104 393 b 192 518 104 393 192 418 b 178 861 192 663 178 763 b 368 1022 178 981 267 1022 l 439 1022 l 439 954 l 410 954 b 317 854 353 954 317 933 b 331 518 317 732 331 668 b 214 364 331 419 257 379 b 331 210 257 349 331 308 "},"}":{"ha":501,"x_min":0,"x_max":0,"o":"m 171 518 b 185 854 171 668 185 732 b 92 954 185 933 149 954 l 63 954 l 63 1022 l 133 1022 b 324 861 235 1022 324 981 b 310 518 324 763 310 661 b 397 393 310 418 397 393 l 397 335 b 310 210 397 335 310 310 b 324 -133 310 65 324 -35 b 133 -294 324 -253 235 -294 l 63 -294 l 63 -226 l 92 -226 b 185 -126 149 -226 185 -206 b 171 210 185 -4 171 60 b 288 364 171 308 244 349 b 171 518 244 379 171 419 "},"*":{"ha":671,"x_min":0,"x_max":0,"o":"m 440 438 l 336 650 l 238 435 l 124 511 l 294 682 l 76 699 l 108 828 l 304 735 l 268 958 l 404 958 l 367 735 l 564 828 l 594 699 l 378 682 l 553 515 "},"†":{"ha":642,"x_min":0,"x_max":0,"o":"m 293 -68 b 224 404 261 15 239 315 l 286 635 l 56 575 l 56 733 l 288 679 l 229 960 l 413 960 l 354 679 l 586 733 l 586 575 l 356 635 l 410 404 b 339 -68 394 315 371 15 l 293 -68 "},"‡":{"ha":642,"x_min":0,"x_max":0,"o":"m 288 210 l 56 156 l 56 314 l 285 254 l 228 442 l 285 638 l 56 578 l 56 736 l 288 682 l 229 960 l 413 960 l 354 682 l 586 736 l 586 578 l 357 638 l 414 442 l 357 254 l 586 314 l 586 156 l 354 210 l 413 -68 l 229 -68 "},"§":{"ha":736,"x_min":0,"x_max":0,"o":"m 171 11 b 340 -131 182 -64 231 -131 b 497 -14 439 -131 497 -90 b 301 139 497 69 414 96 b 92 371 174 188 92 244 b 210 564 92 464 150 526 b 99 740 143 604 99 657 b 365 960 99 879 201 960 b 615 744 521 960 615 868 l 557 744 b 392 876 547 818 492 876 b 247 760 303 876 247 842 b 424 617 247 682 318 657 b 646 381 553 568 646 513 b 531 186 646 293 592 224 b 644 7 597 146 644 93 b 367 -212 644 -140 531 -212 b 113 11 211 -212 113 -119 l 171 11 m 393 249 b 461 221 417 240 439 231 b 521 340 501 249 521 288 b 344 503 521 429 457 461 b 279 529 322 511 300 519 b 217 410 243 503 217 463 b 393 249 217 322 279 290 "},"¶":{"ha":822,"x_min":0,"x_max":0,"o":"m 354 -157 l 354 433 b 71 696 185 433 71 528 b 354 958 71 865 200 958 l 781 958 l 781 857 l 697 857 l 697 -157 l 554 -157 l 554 857 l 422 857 l 422 -157 "},"@":{"ha":1160,"x_min":0,"x_max":0,"o":"m 983 -46 b 601 -183 947 -82 825 -183 b 56 349 221 -183 56 42 b 613 926 56 640 246 926 b 1104 464 915 926 1104 738 b 800 100 1104 176 915 100 b 675 214 711 100 679 142 b 500 104 638 149 579 104 b 318 314 390 104 318 179 b 579 635 318 485 415 635 b 717 536 656 635 699 599 l 718 542 l 738 618 l 828 618 l 792 407 b 775 294 789 390 778 314 b 822 185 764 213 775 185 b 1003 464 892 185 1003 246 b 610 836 1003 694 857 836 b 158 350 300 836 158 590 b 614 -93 158 79 313 -93 b 929 24 794 -93 897 -6 m 682 421 b 589 539 682 488 653 539 b 440 321 488 539 440 415 b 531 201 440 253 465 201 b 682 421 625 201 682 314 "},"©":{"ha":1074,"x_min":0,"x_max":0,"o":"m 536 -17 b 67 475 257 -17 67 181 b 536 965 67 774 269 965 b 1007 475 804 965 1007 774 b 536 -17 1007 181 804 -17 m 535 74 b 910 475 757 74 910 239 b 535 875 910 708 757 875 b 164 475 311 875 164 711 b 535 74 164 243 303 74 m 681 550 b 569 646 678 599 646 646 b 443 469 490 646 443 581 b 581 294 443 350 504 294 b 708 407 658 294 701 336 l 749 407 b 551 215 749 300 683 215 b 307 464 433 215 307 271 b 549 738 307 638 404 738 b 735 582 683 738 735 653 b 732 550 735 574 735 561 l 681 550 "},"®":{"ha":793,"x_min":0,"x_max":0,"o":"m 397 296 b 47 642 189 296 47 447 b 397 986 47 836 188 986 b 746 642 606 986 746 836 b 397 296 746 447 606 296 m 396 367 b 665 640 575 367 665 490 b 396 914 665 790 565 914 b 126 640 218 914 126 790 b 396 367 126 490 218 367 m 519 458 b 449 551 467 458 449 482 b 385 615 449 599 428 615 l 344 615 l 344 463 l 264 463 l 264 826 l 406 826 b 544 731 493 826 544 797 b 461 640 544 676 511 651 b 531 563 508 635 531 615 b 549 494 531 515 531 494 b 563 500 556 494 561 499 l 571 485 b 519 458 560 468 540 458 m 344 774 l 344 663 l 390 663 b 467 717 436 663 467 676 b 389 774 467 757 438 774 "},"℗":{"ha":1074,"x_min":0,"x_max":0,"o":"m 536 -17 b 67 475 257 -17 67 181 b 536 965 67 774 269 965 b 1007 475 804 965 1007 774 b 536 -17 1007 181 804 -17 m 535 74 b 910 475 757 74 910 239 b 535 875 910 708 757 875 b 164 475 311 875 164 711 b 535 74 164 243 303 74 m 578 736 b 776 575 701 736 776 681 b 579 404 776 460 697 404 l 485 404 l 485 218 l 369 218 l 369 736 m 485 657 l 485 482 l 546 482 b 664 571 614 482 664 500 b 540 657 664 635 618 657 "},"™":{"ha":1169,"x_min":0,"x_max":0,"o":"m 526 444 l 546 958 l 674 958 l 829 607 l 992 958 l 1093 958 l 1113 444 l 1021 444 l 1006 806 l 842 454 l 789 454 l 633 804 l 618 444 m 189 444 l 189 876 l 21 876 l 21 956 l 463 956 l 463 876 l 306 876 l 306 444 "},"ª":{"ha":456,"x_min":0,"x_max":0,"o":"m 369 558 b 282 636 322 558 285 583 b 158 556 263 594 229 556 b 39 658 79 556 39 600 b 200 782 39 722 79 782 b 276 769 233 782 258 776 l 276 813 b 192 903 276 864 258 903 b 103 826 128 903 108 867 l 61 826 b 218 969 61 896 90 969 b 372 828 333 969 372 911 l 372 685 b 390 603 372 633 372 614 b 424 608 403 596 417 600 l 432 592 b 369 558 421 574 399 558 m 192 614 b 276 725 257 614 276 683 l 276 732 b 222 742 268 735 243 742 b 133 668 161 742 133 713 b 192 614 133 631 153 614 "},"º":{"ha":460,"x_min":0,"x_max":0,"o":"m 231 556 b 32 760 131 556 32 615 b 232 969 32 890 115 969 b 429 761 328 969 429 906 b 231 556 429 629 351 556 m 231 626 b 331 764 286 626 331 665 b 231 892 331 846 288 892 b 131 763 172 892 131 849 b 231 626 131 667 176 626 "},"№":{"ha":1461,"x_min":0,"x_max":0,"o":"m 828 -7 l 713 -7 l 224 731 l 224 0 l 111 0 l 111 958 l 251 958 l 714 254 l 714 958 l 828 958 m 1161 544 b 944 751 1028 544 944 631 b 1161 958 944 872 1028 958 b 1376 751 1294 958 1376 872 b 1161 544 1376 631 1294 544 m 1161 622 b 1282 751 1228 622 1282 671 b 1161 882 1282 832 1228 882 b 1040 751 1094 882 1040 831 b 1161 622 1040 671 1094 622 m 1385 425 l 1385 318 l 974 318 l 974 425 "},"#":{"ha":868,"x_min":0,"x_max":0,"o":"m 144 0 l 183 260 l 31 260 l 31 349 l 196 349 l 231 586 l 82 586 l 82 675 l 244 675 l 281 924 l 406 924 l 369 675 l 564 675 l 601 924 l 726 924 l 689 675 l 839 675 l 839 586 l 676 586 l 640 349 l 788 349 l 788 260 l 628 260 l 589 0 l 464 0 l 503 260 l 308 260 l 269 0 m 515 349 l 551 586 l 356 586 l 321 349 "},"€":{"ha":813,"x_min":0,"x_max":0,"o":"m 589 325 l 319 325 b 560 86 342 169 425 86 b 749 157 653 86 714 124 l 789 104 b 535 -14 747 47 665 -14 b 172 325 342 -14 206 96 l 29 325 l 49 404 l 165 404 b 165 418 165 408 165 414 l 165 481 b 167 525 165 496 165 511 l 61 525 l 81 604 l 175 604 b 547 944 214 826 360 944 b 785 836 669 944 749 885 l 735 779 b 567 843 694 814 639 843 b 322 604 439 843 349 756 l 644 604 l 625 525 l 314 525 b 314 504 314 518 314 511 l 314 404 l 608 404 "},"$":{"ha":813,"x_min":0,"x_max":0,"o":"m 364 -121 l 364 -12 b 72 264 181 -3 72 92 l 133 264 b 364 85 143 139 242 88 l 364 419 b 346 425 358 421 351 424 b 106 688 200 465 106 533 b 364 944 106 838 208 931 l 364 1042 l 451 1042 l 451 943 b 699 683 608 926 699 829 l 633 683 b 451 846 628 786 546 839 l 451 535 b 468 531 457 533 463 532 b 726 256 624 488 726 414 b 451 -11 726 99 608 6 l 451 -121 m 257 700 b 364 565 257 636 296 596 l 364 838 b 257 700 297 821 257 776 m 569 240 b 451 388 569 311 526 353 l 451 94 b 569 240 521 113 569 161 "},"¢":{"ha":792,"x_min":0,"x_max":0,"o":"m 368 0 l 368 138 b 111 464 236 154 111 246 b 368 826 111 654 207 806 l 368 958 l 454 958 l 454 826 b 651 649 590 811 644 726 b 650 596 653 629 653 613 l 588 596 b 431 725 583 654 550 725 b 249 472 311 725 249 614 b 449 232 249 311 332 232 b 622 379 540 232 614 283 l 672 379 b 454 138 672 249 592 153 l 454 0 "},"£":{"ha":813,"x_min":0,"x_max":0,"o":"m 588 431 l 346 431 b 365 314 357 393 365 356 b 235 96 365 208 292 142 b 404 149 279 122 339 149 b 619 97 514 149 538 97 b 729 160 668 97 701 118 l 761 132 b 581 -10 733 54 675 -10 b 318 43 464 -10 443 43 b 110 -8 246 43 153 13 l 79 65 b 232 299 79 65 232 151 b 211 431 232 347 222 388 l 79 431 l 79 513 l 190 513 b 171 675 179 558 171 610 b 460 944 172 818 271 944 b 729 706 613 944 715 867 l 653 706 b 478 831 628 776 578 831 b 301 654 371 831 303 765 b 322 513 301 600 311 556 l 588 513 "},"ƒ":{"ha":813,"x_min":0,"x_max":0,"o":"m 375 668 b 614 944 399 811 454 944 b 765 836 714 944 760 881 l 724 810 b 639 851 713 828 688 851 b 499 625 547 851 521 767 l 489 567 l 647 567 l 647 488 l 476 488 l 414 110 b 174 -167 390 -33 335 -167 b 21 -60 74 -167 26 -103 l 61 -32 b 149 -74 72 -49 100 -74 b 289 154 242 -74 265 13 l 344 488 l 217 488 l 217 567 l 358 567 l 375 668 "},"¥":{"ha":813,"x_min":0,"x_max":0,"o":"m 706 246 l 481 246 l 481 0 l 347 0 l 347 246 l 119 246 l 119 325 l 347 325 l 347 393 l 315 446 l 119 446 l 119 525 l 267 525 l 21 931 l 190 931 l 438 513 l 682 931 l 793 931 l 554 525 l 706 525 l 706 446 l 508 446 l 481 399 l 481 325 l 706 325 "},"ⁱ":{"ha":233,"x_min":0,"x_max":0,"o":"m 58 1158 l 172 1158 l 172 1065 l 58 1065 m 165 961 l 165 563 l 64 563 l 64 956 "},"ⁿ":{"ha":481,"x_min":0,"x_max":0,"o":"m 324 563 l 324 768 b 251 888 324 854 306 888 b 161 715 192 888 161 829 l 161 563 l 60 563 l 60 956 l 147 961 l 158 842 b 293 969 171 914 206 969 b 426 813 396 969 426 908 l 426 563 "},"⁰":{"ha":517,"x_min":0,"x_max":0,"o":"m 260 554 b 32 842 131 554 32 639 b 260 1131 32 1038 125 1131 b 485 844 388 1131 485 1046 b 260 554 485 647 393 554 m 268 640 b 390 844 343 640 390 707 b 268 1046 390 989 336 1046 b 146 842 193 1046 146 986 b 268 640 146 692 199 640 "},"¹":{"ha":363,"x_min":0,"x_max":0,"o":"m 289 1128 l 289 563 l 181 563 l 181 1017 l 50 956 l 31 1004 l 226 1128 "},"²":{"ha":496,"x_min":0,"x_max":0,"o":"m 57 565 l 57 611 b 328 942 206 739 328 829 b 231 1044 328 1001 297 1044 b 125 892 143 1044 106 974 l 65 892 b 251 1131 28 997 88 1131 b 443 953 376 1131 443 1060 b 204 646 443 825 333 744 l 456 646 l 456 565 "},"³":{"ha":490,"x_min":0,"x_max":0,"o":"m 444 719 b 240 553 444 617 364 553 b 39 740 117 553 29 607 l 96 740 b 215 639 97 676 140 639 b 331 735 285 639 331 672 b 201 818 331 797 276 818 l 149 818 l 149 882 l 197 882 b 317 963 263 882 317 899 b 217 1047 317 1017 281 1047 b 107 950 143 1047 107 1008 l 54 950 b 243 1131 44 1069 132 1131 b 428 982 350 1131 428 1079 b 311 851 428 906 375 868 b 444 719 385 838 444 801 "},"⁴":{"ha":511,"x_min":0,"x_max":0,"o":"m 396 711 l 396 563 l 290 563 l 290 711 l 26 711 l 26 779 l 293 1124 l 396 1124 l 396 790 l 492 790 l 492 711 m 290 790 l 290 1011 l 119 790 "},"⁵":{"ha":493,"x_min":0,"x_max":0,"o":"m 450 757 b 250 553 450 632 376 553 b 51 732 139 553 39 601 l 108 732 b 224 638 110 672 153 638 b 340 753 297 638 340 683 b 229 858 340 822 294 858 b 117 808 161 858 126 821 l 64 828 l 75 1122 l 414 1122 l 414 1035 l 164 1035 l 154 882 b 276 929 176 904 215 929 b 450 757 386 929 450 865 "},"⁶":{"ha":500,"x_min":0,"x_max":0,"o":"m 265 1131 b 450 960 406 1131 456 1054 l 393 960 b 285 1047 389 999 367 1047 b 140 840 196 1047 140 985 b 142 801 140 832 140 817 b 297 910 156 867 211 910 b 457 740 386 910 457 856 b 264 553 457 617 371 553 b 36 833 104 553 36 664 b 265 1131 36 997 108 1131 m 264 839 b 161 738 197 839 161 799 b 260 639 161 682 193 639 b 360 739 321 639 360 681 b 264 839 360 806 321 839 "},"⁷":{"ha":458,"x_min":0,"x_max":0,"o":"m 425 1065 b 211 563 268 854 222 699 l 99 563 b 317 1038 108 721 169 869 l 39 1038 l 39 1122 l 425 1122 "},"⁸":{"ha":507,"x_min":0,"x_max":0,"o":"m 253 556 b 40 717 113 556 40 615 b 164 860 40 796 92 843 b 57 989 93 876 57 921 b 251 1133 57 1074 118 1133 b 449 989 385 1133 449 1074 b 340 860 449 921 411 876 b 465 717 414 843 465 796 b 253 556 465 615 393 556 m 253 888 b 344 972 311 888 344 919 b 253 1053 344 1019 313 1053 b 161 972 193 1053 161 1019 b 253 888 161 919 194 888 m 253 636 b 356 732 311 636 356 667 b 253 828 356 794 313 828 b 150 732 196 828 150 794 b 253 636 150 667 192 636 "},"⁹":{"ha":500,"x_min":0,"x_max":0,"o":"m 236 553 b 53 724 96 553 46 631 l 110 724 b 218 638 114 686 136 638 b 361 843 306 638 361 699 b 360 879 361 851 361 865 b 206 774 344 815 290 774 b 44 943 117 774 44 828 b 239 1131 44 1068 131 1131 b 465 850 399 1131 465 1021 b 236 553 465 688 393 553 m 239 844 b 342 946 307 844 342 885 b 243 1046 342 1003 308 1046 b 143 944 181 1046 143 1003 b 239 844 143 879 181 844 "},"₀":{"ha":517,"x_min":0,"x_max":0,"o":"m 260 -147 b 32 140 131 -147 32 -62 b 260 429 32 336 125 429 b 485 143 388 429 485 344 b 260 -147 485 -54 393 -147 m 268 -61 b 390 143 343 -61 390 6 b 268 344 390 288 336 344 b 146 140 193 344 146 285 b 268 -61 146 -10 199 -61 "},"₁":{"ha":363,"x_min":0,"x_max":0,"o":"m 289 426 l 289 -139 l 181 -139 l 181 315 l 50 254 l 31 303 l 226 426 "},"₂":{"ha":496,"x_min":0,"x_max":0,"o":"m 57 -136 l 57 -90 b 328 240 206 38 328 128 b 231 343 328 300 297 343 b 125 190 143 343 106 272 l 65 190 b 251 429 28 296 88 429 b 443 251 376 429 443 358 b 204 -56 443 124 333 43 l 456 -56 l 456 -136 "},"₃":{"ha":490,"x_min":0,"x_max":0,"o":"m 444 18 b 240 -149 444 -85 364 -149 b 39 39 117 -149 29 -94 l 96 39 b 215 -62 97 -25 140 -62 b 331 33 285 -62 331 -29 b 201 117 331 96 276 117 l 149 117 l 149 181 l 197 181 b 317 261 263 181 317 197 b 217 346 317 315 281 346 b 107 249 143 346 107 307 l 54 249 b 243 429 44 368 132 429 b 428 281 350 429 428 378 b 311 150 428 204 375 167 b 444 18 385 136 444 100 "},"₄":{"ha":511,"x_min":0,"x_max":0,"o":"m 396 10 l 396 -139 l 290 -139 l 290 10 l 26 10 l 26 78 l 293 422 l 396 422 l 396 89 l 492 89 l 492 10 m 290 89 l 290 310 l 119 89 "},"₅":{"ha":493,"x_min":0,"x_max":0,"o":"m 450 56 b 250 -149 450 -69 376 -149 b 51 31 139 -149 39 -100 l 108 31 b 224 -64 110 -29 153 -64 b 340 51 297 -64 340 -18 b 229 157 340 121 294 157 b 117 107 161 157 126 119 l 64 126 l 75 421 l 414 421 l 414 333 l 164 333 l 154 181 b 276 228 176 203 215 228 b 450 56 386 228 450 164 "},"₆":{"ha":500,"x_min":0,"x_max":0,"o":"m 265 429 b 450 258 406 429 456 353 l 393 258 b 285 346 389 297 367 346 b 140 139 196 346 140 283 b 142 100 140 131 140 115 b 297 208 156 165 211 208 b 457 39 386 208 457 154 b 264 -149 457 -85 371 -149 b 36 132 104 -149 36 -37 b 265 429 36 296 108 429 m 264 138 b 161 36 197 138 161 97 b 260 -62 161 -19 193 -62 b 360 38 321 -62 360 -21 b 264 138 360 104 321 138 "},"₇":{"ha":458,"x_min":0,"x_max":0,"o":"m 425 364 b 211 -139 268 153 222 -3 l 99 -139 b 317 336 108 19 169 168 l 39 336 l 39 421 l 425 421 "},"₈":{"ha":507,"x_min":0,"x_max":0,"o":"m 253 -146 b 40 15 113 -146 40 -86 b 164 158 40 94 92 142 b 57 288 93 175 57 219 b 251 432 57 372 118 432 b 449 288 385 432 449 372 b 340 158 449 219 411 175 b 465 15 414 142 465 94 b 253 -146 465 -86 393 -146 m 253 186 b 344 271 311 186 344 218 b 253 351 344 318 313 351 b 161 271 193 351 161 318 b 253 186 161 218 194 186 m 253 -65 b 356 31 311 -65 356 -35 b 253 126 356 93 313 126 b 150 31 196 126 150 93 b 253 -65 150 -35 192 -65 "},"₉":{"ha":500,"x_min":0,"x_max":0,"o":"m 236 -149 b 53 22 96 -149 46 -71 l 110 22 b 218 -64 114 -15 136 -64 b 361 142 306 -64 361 -3 b 360 178 361 150 361 164 b 206 72 344 114 290 72 b 44 242 117 72 44 126 b 239 429 44 367 131 429 b 465 149 399 429 465 319 b 236 -149 465 -14 393 -149 m 239 143 b 342 244 307 143 342 183 b 243 344 342 301 308 344 b 143 243 181 344 143 301 b 239 143 143 178 181 143 "},"⁄":{"ha":624,"x_min":0,"x_max":0,"o":"m 600 931 l 128 0 l 19 0 l 493 931 "},"½":{"ha":994,"x_min":0,"x_max":0,"o":"m 182 932 l 238 932 l 238 499 l 138 499 l 138 831 l 47 790 l 31 833 m 765 931 l 293 0 l 185 0 l 658 931 m 656 247 b 799 435 628 328 671 435 b 944 300 893 435 944 381 b 775 74 944 206 871 147 l 954 74 l 954 0 l 650 0 l 650 44 b 842 285 753 132 842 203 b 778 354 842 326 819 354 b 711 247 719 354 696 307 l 656 247 "},"¼":{"ha":957,"x_min":0,"x_max":0,"o":"m 182 932 l 238 932 l 238 499 l 138 499 l 138 831 l 47 790 l 31 833 m 765 931 l 293 0 l 185 0 l 658 931 m 769 110 l 583 110 l 583 174 l 778 432 l 867 432 l 867 178 l 938 178 l 938 110 l 867 110 l 867 0 l 769 0 m 769 178 l 769 339 l 649 178 "},"¾":{"ha":1004,"x_min":0,"x_max":0,"o":"m 51 794 b 196 936 42 892 114 936 b 336 819 275 936 336 894 b 256 722 336 763 300 735 b 349 621 307 710 349 682 b 192 492 349 543 289 492 b 40 640 96 492 31 538 l 90 640 b 168 569 89 597 117 569 b 243 638 215 569 243 594 b 160 696 243 676 214 696 l 125 696 l 125 743 l 157 743 b 235 801 206 743 235 761 b 169 860 235 836 210 860 b 99 794 122 860 97 836 l 51 794 m 813 931 l 340 0 l 232 0 l 706 931 m 818 110 l 631 110 l 631 174 l 825 432 l 914 432 l 914 178 l 985 178 l 985 110 l 914 110 l 914 0 l 818 0 m 818 178 l 818 340 l 696 178 "},"%":{"ha":903,"x_min":0,"x_max":0,"o":"m 197 621 b 28 785 97 621 28 689 b 197 950 28 885 97 950 b 365 785 296 950 365 885 b 197 621 365 689 296 621 m 729 931 l 257 0 l 149 0 l 622 931 m 197 703 b 279 785 243 703 279 740 b 197 867 279 829 243 867 b 115 785 150 867 115 829 b 197 703 115 740 150 703 m 708 -14 b 539 151 608 -14 539 54 b 708 315 539 251 608 315 b 875 151 806 315 875 251 b 708 -14 875 54 806 -14 m 707 69 b 789 150 754 69 789 106 b 707 232 789 196 754 232 b 625 150 660 232 625 196 b 707 69 625 106 660 69 "},"‰":{"ha":1313,"x_min":0,"x_max":0,"o":"m 197 621 b 28 785 97 621 28 689 b 197 950 28 885 97 950 b 365 785 296 950 365 885 b 197 621 365 689 296 621 m 729 931 l 257 0 l 149 0 l 622 931 m 197 703 b 279 785 243 703 279 740 b 197 867 279 829 243 867 b 115 785 150 867 115 829 b 197 703 115 740 150 703 m 708 -14 b 539 151 608 -14 539 54 b 708 315 539 251 608 315 b 875 151 806 315 875 251 b 708 -14 875 54 806 -14 m 1118 -14 b 949 151 1018 -14 949 54 b 1118 315 949 251 1018 315 b 1285 151 1215 315 1285 251 b 1118 -14 1285 54 1215 -14 m 707 69 b 789 150 754 69 789 106 b 707 232 789 196 754 232 b 625 150 660 232 625 196 b 707 69 625 106 660 69 m 1117 69 b 1199 150 1164 69 1199 106 b 1117 232 1199 196 1164 232 b 1035 150 1069 232 1035 196 b 1117 69 1035 106 1069 69 "},"+":{"ha":813,"x_min":0,"x_max":0,"o":"m 351 131 l 351 378 l 111 378 l 111 488 l 351 488 l 351 735 l 461 735 l 461 488 l 701 488 l 701 378 l 461 378 l 461 131 "},"−":{"ha":813,"x_min":0,"x_max":0,"o":"m 701 378 l 111 378 l 111 488 l 701 488 "},"±":{"ha":813,"x_min":0,"x_max":0,"o":"m 351 144 l 351 399 l 111 399 l 111 501 l 351 501 l 351 742 l 461 742 l 461 501 l 701 501 l 701 399 l 461 399 l 461 144 m 703 -10 l 113 -10 l 113 93 l 703 93 "},"×":{"ha":813,"x_min":0,"x_max":0,"o":"m 329 418 l 160 589 l 238 665 l 407 496 l 576 665 l 654 589 l 485 418 l 654 249 l 576 171 l 407 340 l 238 171 l 160 249 "},"÷":{"ha":813,"x_min":0,"x_max":0,"o":"m 333 717 b 410 792 333 756 363 792 b 483 717 454 792 483 756 b 411 642 483 674 456 642 b 333 717 363 642 333 674 m 701 378 l 111 378 l 111 488 l 701 488 m 333 156 b 410 231 333 194 363 231 b 483 156 454 231 483 194 b 411 81 483 113 456 81 b 333 156 363 81 333 113 "},"=":{"ha":813,"x_min":0,"x_max":0,"o":"m 701 533 l 111 533 l 111 643 l 701 643 m 701 222 l 111 222 l 111 332 l 701 332 "},"≠":{"ha":813,"x_min":0,"x_max":0,"o":"m 701 226 l 344 226 l 276 96 l 179 96 l 247 226 l 111 226 l 111 329 l 300 329 l 408 536 l 111 536 l 111 639 l 463 639 l 532 774 l 628 774 l 558 639 l 701 639 l 701 536 l 504 536 l 397 329 l 701 329 "},"~":{"ha":813,"x_min":0,"x_max":0,"o":"m 274 533 b 415 483 335 533 375 510 b 542 435 454 460 492 435 b 636 533 613 435 632 475 l 704 533 b 542 329 700 418 661 329 b 396 379 481 329 438 353 b 274 428 358 403 324 428 b 178 331 203 428 181 378 l 108 331 b 274 533 113 442 154 533 "},"≈":{"ha":813,"x_min":0,"x_max":0,"o":"m 115 479 b 281 669 119 590 168 669 b 426 621 344 669 385 646 b 549 578 464 600 500 578 b 643 669 613 578 638 611 l 711 669 b 549 478 707 553 661 478 b 411 521 492 478 450 499 b 281 569 369 544 333 569 b 185 479 217 569 190 526 m 115 178 b 281 368 119 289 168 368 b 421 322 340 368 381 346 b 549 276 461 300 499 276 b 643 368 613 276 638 310 l 711 368 b 549 176 707 251 661 176 b 404 222 488 176 444 199 b 281 268 365 246 331 268 b 185 178 217 268 190 225 "},"^":{"ha":781,"x_min":0,"x_max":0,"o":"m 419 949 l 656 565 l 592 528 l 382 847 l 172 528 l 110 565 l 346 949 "},"<":{"ha":799,"x_min":0,"x_max":0,"o":"m 624 144 l 118 386 l 118 472 l 624 714 l 667 621 l 256 429 l 667 238 "},">":{"ha":799,"x_min":0,"x_max":0,"o":"m 175 144 l 132 238 l 543 429 l 132 621 l 175 714 l 681 472 l 681 386 "},"≤":{"ha":813,"x_min":0,"x_max":0,"o":"m 642 225 l 125 458 l 125 544 l 642 783 l 678 686 l 257 501 l 678 324 m 701 0 l 111 0 l 111 103 l 701 103 "},"≥":{"ha":792,"x_min":0,"x_max":0,"o":"m 171 225 l 135 324 l 556 501 l 135 686 l 171 783 l 688 544 l 688 458 m 701 103 l 701 0 l 111 0 l 111 103 "},"¬":{"ha":813,"x_min":0,"x_max":0,"o":"m 585 244 l 585 506 l 104 506 l 104 615 l 694 615 l 694 244 "},"¤":{"ha":799,"x_min":0,"x_max":0,"o":"m 186 269 b 144 410 160 310 144 358 b 190 558 144 465 161 517 l 100 650 l 163 713 l 253 619 b 397 663 293 647 343 663 b 544 618 454 663 504 646 l 636 713 l 700 650 l 607 556 b 651 410 636 514 651 464 b 613 272 651 358 638 311 l 700 182 l 636 119 l 551 207 b 397 157 510 175 457 157 b 246 206 339 157 288 175 l 163 119 l 100 182 m 399 260 b 544 410 486 260 544 328 b 399 558 544 492 486 558 b 253 410 311 558 253 492 b 399 260 253 328 311 260 "},"∞":{"ha":813,"x_min":0,"x_max":0,"o":"m 599 244 b 400 378 510 244 451 301 b 204 243 346 301 293 243 b 33 428 75 243 33 339 b 213 613 33 522 83 613 b 413 481 303 613 361 557 b 607 613 467 556 518 613 b 779 431 738 613 779 522 b 599 244 779 340 729 244 m 219 329 b 346 429 275 329 314 376 b 219 528 314 482 275 528 b 131 429 151 528 131 474 b 219 329 131 385 151 329 m 592 331 b 683 428 661 331 683 383 b 592 526 683 472 661 526 b 467 428 536 526 497 479 b 592 331 499 376 538 331 "},"◊":{"ha":786,"x_min":0,"x_max":0,"o":"m 715 442 l 449 -8 l 338 -8 l 71 442 l 71 503 l 338 956 l 449 956 l 715 503 m 590 475 l 394 826 l 197 475 l 394 122 "},"∆":{"ha":874,"x_min":0,"x_max":0,"o":"m 35 47 l 371 963 l 519 963 l 839 47 l 839 0 l 35 0 m 418 815 l 157 89 l 663 89 "},"Ω":{"ha":1025,"x_min":0,"x_max":0,"o":"m 442 0 l 83 0 l 83 103 l 353 103 l 353 115 b 63 522 308 128 63 192 b 513 969 63 774 228 969 b 963 522 808 969 963 774 b 681 115 963 193 722 128 l 681 103 l 939 103 l 939 0 l 600 0 l 600 149 b 824 499 606 150 824 232 b 521 843 824 681 726 843 b 218 499 319 843 218 694 b 442 149 218 232 438 150 "},"∂":{"ha":758,"x_min":0,"x_max":0,"o":"m 363 969 b 704 507 540 969 704 826 b 349 -14 704 201 578 -14 b 54 304 153 -14 54 126 b 346 654 54 486 144 654 b 565 517 469 654 533 585 l 565 525 b 329 878 565 799 438 879 b 189 842 272 878 225 861 l 154 914 b 363 969 194 942 265 969 m 190 304 b 347 83 190 176 243 83 b 557 368 454 83 532 163 b 379 554 547 432 508 554 b 190 304 246 554 190 439 "},"∫":{"ha":485,"x_min":0,"x_max":0,"o":"m 394 947 b 300 788 324 947 300 901 l 300 754 l 321 61 l 321 32 b 129 -221 321 -140 265 -221 b -14 -142 53 -221 8 -179 l 28 -101 b 90 -128 43 -115 63 -128 b 185 33 163 -128 185 -79 l 185 67 l 161 756 l 161 794 b 356 1040 161 964 225 1040 b 499 963 435 1040 478 996 l 457 921 b 394 947 443 935 424 947 "},"√":{"ha":792,"x_min":0,"x_max":0,"o":"m 379 -46 l 665 986 l 799 986 l 449 -201 l 306 -201 l 117 300 l 0 300 l 0 381 l 226 381 "},"∑":{"ha":889,"x_min":0,"x_max":0,"o":"m 104 -76 l 444 390 l 113 868 l 113 958 l 785 958 l 785 856 l 272 856 l 572 426 l 572 361 l 264 -62 l 785 -62 l 785 -165 l 104 -165 "},"∏":{"ha":949,"x_min":0,"x_max":0,"o":"m 838 958 l 838 -181 l 696 -181 l 696 856 l 254 856 l 254 -181 l 111 -181 l 111 958 "},"π":{"ha":868,"x_min":0,"x_max":0,"o":"m 526 588 l 306 588 l 306 272 b 250 0 306 153 285 69 l 157 0 b 171 282 167 51 171 117 l 171 588 l 14 588 l 14 660 l 824 660 l 824 588 l 661 588 l 661 183 b 729 78 661 125 671 78 b 788 140 764 78 786 94 l 822 140 b 686 -14 822 42 782 -14 b 526 185 581 -14 526 47 "},"µ":{"ha":806,"x_min":0,"x_max":0,"o":"m 97 -347 l 97 660 l 232 667 l 232 313 b 368 100 232 164 268 100 b 521 393 475 100 521 208 l 521 660 l 656 667 l 656 178 b 711 78 656 118 663 78 b 754 129 740 78 754 101 l 789 129 b 664 -14 789 49 760 -14 b 528 164 569 -14 528 56 l 528 169 b 365 -14 506 65 458 -14 b 232 63 301 -14 258 14 l 232 -347 "},"°":{"ha":543,"x_min":0,"x_max":0,"o":"m 272 544 b 56 751 139 544 56 631 b 272 958 56 872 139 958 b 488 751 406 958 488 872 b 272 544 488 631 406 544 m 272 622 b 393 751 339 622 393 671 b 272 882 393 832 339 882 b 151 751 206 882 151 831 b 272 622 151 671 206 622 "},"℮":{"ha":1057,"x_min":0,"x_max":0,"o":"m 251 390 l 251 131 b 528 36 314 72 400 36 b 900 203 707 36 815 89 l 935 174 b 528 -7 863 72 740 -7 b 69 418 239 -7 69 188 b 528 843 69 651 250 843 b 985 418 803 843 985 651 l 985 390 m 528 800 b 251 703 407 800 317 765 l 251 429 l 804 429 l 804 703 b 528 800 739 764 646 800 "},"ℓ":{"ha":607,"x_min":0,"x_max":0,"o":"m 528 136 b 360 -14 521 43 463 -14 b 171 260 229 -14 171 61 l 171 286 b 46 229 132 267 92 249 l 21 296 b 171 365 76 318 126 342 l 171 686 b 385 976 171 893 257 976 b 557 772 488 976 557 906 b 303 363 557 621 490 488 l 303 240 b 401 79 303 126 328 79 b 496 136 453 79 483 97 l 528 136 m 303 449 b 485 775 440 553 485 663 b 399 896 485 857 447 896 b 303 726 349 896 303 857 "},"&":{"ha":1003,"x_min":0,"x_max":0,"o":"m 979 172 b 797 -14 979 57 919 -14 b 629 53 740 -14 686 3 b 394 -14 561 10 479 -14 b 49 278 194 -14 49 86 b 321 578 49 468 186 536 b 281 744 296 639 281 697 b 535 969 281 906 397 969 b 750 788 682 969 750 881 b 481 558 750 642 618 592 b 582 361 510 496 546 429 b 672 201 618 294 646 243 b 776 471 731 263 769 351 l 847 471 b 724 131 847 332 800 215 b 835 76 758 92 792 76 b 924 172 885 76 921 103 l 979 172 m 421 756 b 454 617 421 715 433 668 b 653 779 560 647 653 681 b 543 889 653 842 617 889 b 421 756 467 889 421 844 m 446 317 b 344 521 411 385 375 454 b 197 306 253 483 197 421 b 415 97 197 161 299 97 b 563 126 467 97 517 107 b 446 317 526 174 488 236 "},"ﬁ":{"ha":771,"x_min":0,"x_max":0,"o":"m 128 586 b 128 594 128 589 128 592 l 21 594 l 21 646 l 124 660 l 125 660 b 114 789 121 708 114 738 b 296 986 114 892 164 986 b 440 886 388 986 428 938 b 443 821 444 867 446 846 l 403 821 b 319 894 399 864 371 894 b 228 789 249 894 228 846 b 251 660 229 742 242 714 l 526 660 l 661 667 l 661 0 l 526 0 l 526 594 l 260 594 b 263 515 261 572 263 546 l 263 0 l 128 0 m 533 986 l 668 986 l 668 850 l 533 850 "},"ﬂ":{"ha":782,"x_min":0,"x_max":0,"o":"m 128 586 b 128 594 128 589 128 592 l 21 594 l 21 646 l 124 660 b 111 789 119 708 111 738 b 303 986 111 892 171 986 b 450 886 394 986 438 938 b 453 821 454 867 456 846 l 411 821 b 328 894 407 864 378 894 b 228 789 258 894 228 846 b 251 660 229 742 242 714 l 419 660 l 419 594 l 260 594 b 263 515 261 572 263 546 l 263 0 l 128 0 m 678 986 l 678 0 l 543 0 l 543 979 "},"←":{"ha":976,"x_min":0,"x_max":0,"o":"m 444 621 l 231 417 l 907 417 l 907 314 l 231 314 l 444 110 l 374 40 l 49 364 l 374 688 "},"→":{"ha":976,"x_min":0,"x_max":0,"o":"m 746 417 l 532 621 l 603 688 l 928 364 l 603 40 l 532 110 l 746 314 l 69 314 l 69 417 "},"↑":{"ha":800,"x_min":0,"x_max":0,"o":"m 349 0 l 349 788 l 144 574 l 76 644 l 400 969 l 724 644 l 656 574 l 453 786 l 453 0 "},"↓":{"ha":800,"x_min":0,"x_max":0,"o":"m 451 958 l 451 171 l 656 385 l 724 314 l 400 -11 l 76 314 l 144 385 l 347 172 l 347 958 "},"↖":{"ha":863,"x_min":0,"x_max":0,"o":"m 583 660 l 583 561 l 292 568 l 796 64 l 724 -11 l 218 494 l 225 203 l 125 203 l 125 660 "},"↗":{"ha":863,"x_min":0,"x_max":0,"o":"m 571 568 l 279 561 l 279 660 l 738 660 l 738 203 l 638 203 l 644 494 l 139 -11 l 67 64 "},"↙":{"ha":863,"x_min":0,"x_max":0,"o":"m 125 457 l 225 457 l 218 165 l 724 671 l 796 596 l 292 92 l 583 99 l 583 0 l 125 0 "},"↘":{"ha":863,"x_min":0,"x_max":0,"o":"m 139 671 l 644 165 l 638 457 l 738 457 l 738 0 l 279 0 l 279 99 l 571 92 l 67 596 "}}}
